<svg width="96" height="94" viewBox="0 0 96 94" fill="none" xmlns="http://www.w3.org/2000/svg">
<path d="M62.4626 77.3108C61.4559 79.8076 60.7714 80.2593 58.0083 80.2593C55.7509 80.2593 53.4936 80.2593 51.1708 80.2593V86.2264C51.6968 86.259 52.2303 86.2339 52.7411 86.3318C55.6528 86.8888 57.1224 89.2501 56.7198 92.3741C56.6267 93.0993 56.0152 93.2273 55.3558 93.2248C50.9921 93.2148 46.6284 93.2198 42.2647 93.2198C41.3864 93.2198 40.4956 93.3026 39.6324 93.1821C39.2298 93.1269 38.6006 92.7154 38.5528 92.3967C38.0822 89.1848 39.6601 86.801 42.6598 86.3067C43.1128 86.2314 43.5834 86.259 44.0892 86.2364V80.2618H42.7202C40.8051 80.2618 38.89 80.2618 36.9749 80.2618C34.4483 80.2618 33.5298 79.6244 32.7119 77.2807C31.0233 77.2983 29.7247 76.666 29.2038 74.9396C29.0805 74.5305 29.0704 74.0764 29.0704 73.6423C29.0604 70.1368 29.0654 66.6338 29.0654 63.0681C28.7559 62.9928 28.4614 62.9376 28.1771 62.8523C26.9263 62.4709 26.1286 61.3091 26.262 60.0745C26.4004 58.7822 27.4422 57.8036 28.7911 57.7358C29.4479 57.7032 30.1098 57.7258 30.7691 57.7233C31.4209 57.7233 32.0752 57.7233 32.7798 57.7233V53.1012H14.9375C14.9375 53.4148 14.9375 53.7461 14.9375 54.0773C14.9375 61.0883 14.9375 68.1017 14.9375 75.1127C14.9375 76.4376 14.6783 76.691 13.3344 76.691C11.7968 76.6936 10.2567 76.6961 8.71909 76.691C7.5187 76.686 7.21671 76.3899 7.21419 75.1955C7.21168 68.1845 7.21419 61.1711 7.21419 54.1601C7.21419 53.8213 7.21419 53.4826 7.21419 53.0284C5.34188 53.0284 3.53248 53.0284 1.72308 53.0284C0.313811 53.0284 0.142686 52.7725 0.0395069 51.4124C-0.161817 48.73 0.41699 46.2734 1.53182 43.8143C3.7338 38.9437 5.74201 33.9854 7.77287 29.0421C8.19565 28.0132 8.77697 27.539 9.89181 27.6619C10.5109 27.7297 11.145 27.6745 11.8648 27.6745C11.8849 27.3834 11.9201 27.1174 11.9201 26.8514C11.9252 25.0974 11.9881 23.3435 11.9101 21.592C11.7188 17.3111 14.9098 12.7492 20.5142 12.8069C18.3977 11.6 17.1294 9.96389 16.8023 7.698C16.4751 5.43964 17.1068 3.47235 18.7425 1.87895C21.4453 -0.750791 25.7738 -0.587688 28.2425 2.19763C31.1114 5.43211 30.4294 9.36417 26.3375 12.8094C27.9581 12.8094 29.4429 13.1105 30.759 13.9687C33.2806 15.6123 34.6018 17.9635 34.6949 20.9496C34.7629 23.1628 34.7075 25.3785 34.7075 27.6318H36.0312C36.0312 26.6457 36.0237 25.6545 36.0312 24.6633C36.0463 23.1302 35.9582 21.5844 36.1218 20.0663C36.4993 16.5583 39.4739 12.7843 44.6831 12.8019C42.4962 11.5498 41.2153 9.82839 40.9511 7.48973C40.6843 5.12096 41.4619 3.1085 43.2915 1.54521C46.1553 -0.89884 50.5089 -0.379416 52.8015 2.6493C55.0564 5.63285 54.5405 10.4632 50.4007 12.7592C51.0475 12.8145 51.5508 12.8245 52.039 12.9023C55.9422 13.5346 58.8991 16.8996 58.9948 20.8593C59.0401 22.7989 59.0073 24.7411 59.0099 26.6808C59.0099 26.9844 59.0099 27.2881 59.0099 27.6293H60.3285C60.3285 26.3496 60.3134 25.0774 60.3336 23.8052C60.3562 22.4627 60.2681 21.0976 60.4795 19.7803C61.1439 15.6198 64.2216 12.9901 68.4469 12.827C68.535 12.8245 68.6231 12.7994 68.8521 12.7643C67.2591 11.891 66.1418 10.7217 65.5378 9.11073C64.9313 7.49224 64.9086 5.86873 65.5252 4.25023C66.562 1.53267 69.144 -0.128487 72.0934 0.0145431C74.9447 0.152554 77.3329 2.0822 78.1029 4.87254C78.9409 7.91129 77.7305 10.7192 74.61 12.7718C75.224 12.8195 75.7348 12.822 76.2331 12.9023C80.091 13.5196 83.0127 16.8544 83.1109 20.8091C83.1662 23.0549 83.1209 25.3057 83.1209 27.667C83.9992 27.667 84.807 27.6895 85.6098 27.6594C86.327 27.6343 86.7926 27.9204 87.0719 28.5879C89.6589 34.7582 92.2862 40.911 94.8179 47.104C95.1274 47.8643 94.9638 48.8228 94.9915 49.691C95.0142 50.3786 94.9915 51.0686 94.9965 51.7562C95.0016 52.6068 94.5863 53.0259 93.7307 53.0234C91.8785 53.0184 90.0289 53.0234 88.0282 53.0234V54.1325C88.0282 61.0832 88.0282 68.0315 88.0282 74.9822C88.0282 76.4326 87.774 76.6885 86.3497 76.691C84.812 76.691 83.2719 76.6961 81.7343 76.691C80.4609 76.686 80.1187 76.3423 80.1187 75.0751C80.1187 68.0942 80.1187 61.1133 80.1187 54.1325V53.0736H62.4827V57.7208C63.5321 57.7208 64.5865 57.7208 65.6435 57.7208C67.5007 57.7258 68.6533 58.599 68.7967 60.1121C68.9376 61.5776 67.9084 62.6842 65.9908 63.038V65.4268C65.9908 68.0566 65.9908 70.6863 65.9908 73.316C65.9908 75.9884 65.0722 77.0273 62.4676 77.3134L62.4626 77.3108ZM32.8151 48.8906C32.3973 48.8906 32.0601 48.8906 31.7204 48.8906C27.5479 48.8906 23.373 48.8881 19.2005 48.8906C18.4279 48.8906 17.8768 48.5744 17.8693 47.7714C17.8617 46.9685 18.4028 46.6272 19.1804 46.6347C19.3993 46.6372 19.6208 46.6347 19.8397 46.6347C23.7001 46.6347 27.5605 46.6272 31.4184 46.6397C32.3873 46.6422 33.2253 46.6724 33.9249 45.6862C34.6522 44.6624 35.9507 44.7302 37.1335 44.7402C37.4959 44.7427 38.0445 44.6699 38.1955 44.4316C39.4135 42.527 41.1574 41.4355 43.4676 40.9411C41.706 39.4782 40.7498 37.7217 40.712 35.5211C40.6717 33.338 41.5702 31.5539 43.1908 29.958H9.86161C7.53883 35.4709 5.2085 41.0064 2.84043 46.6322C6.11195 46.6322 9.21737 46.6297 12.3228 46.6322C13.3445 46.6322 13.8378 47.0036 13.8403 47.7514C13.8453 48.4991 13.3495 48.883 12.3354 48.883C9.66783 48.8881 7.00029 48.883 4.33274 48.883C3.68347 48.883 3.0342 48.883 2.3799 48.883V50.6897H32.8126V48.883L32.8151 48.8906ZM51.956 29.9203C54.85 32.6906 55.8013 37.2675 51.7974 40.9637C53.6572 41.3577 55.3281 42.113 56.37 43.6913C56.9865 44.6248 57.6836 44.8556 58.6928 44.7703C59.8529 44.6725 60.9048 45.0388 61.5969 45.9923C61.9869 46.5268 62.3921 46.6498 63.0011 46.6473C72.3853 46.6322 81.767 46.6372 91.1512 46.6372H92.178C92.0396 46.2759 91.9389 45.9873 91.8206 45.7088C89.7269 40.7253 87.6155 35.7469 85.5469 30.7509C85.2776 30.0985 84.9429 29.9002 84.2383 29.9027C73.85 29.9303 63.4642 29.9203 53.0758 29.9203H51.956ZM47.6199 47.0136C43.9156 47.0136 40.2137 47.0086 36.5094 47.0161C35.4323 47.0161 35.0951 47.3499 35.0951 48.4113C35.09 53.8238 35.09 59.2389 35.0951 64.6515C35.0951 65.62 35.4373 65.9789 36.3785 65.9789C43.8476 65.9864 51.3168 65.9864 58.7859 65.9789C59.7699 65.9789 60.1373 65.6 60.1398 64.6038C60.1473 59.2515 60.1499 53.9016 60.1398 48.5493C60.1398 47.3398 59.7774 47.0161 58.5393 47.0136C54.8978 47.0086 51.2589 47.0136 47.6174 47.0136H47.6199ZM56.7122 27.6444C56.7122 25.1702 56.8758 22.7563 56.672 20.3724C56.4153 17.3864 53.7628 15.0527 51.0072 15.0979C50.7505 15.1029 50.3051 15.2711 50.2749 15.4291C50.1013 16.2999 49.8597 17.2082 49.9578 18.0714C50.1566 19.838 50.5366 21.5869 50.8738 23.3359C51.0324 24.1489 50.8084 24.716 50.0736 25.1401C47.0588 26.8765 47.9546 26.8414 45.0908 25.1878C45.0631 25.1727 45.038 25.1527 45.0103 25.1401C44.2478 24.7712 44.0137 24.179 44.1773 23.361C44.4768 21.858 44.7108 20.3423 45.0304 18.8443C45.2519 17.8105 45.2468 16.8268 44.9297 15.8055C44.7586 15.256 44.5573 15.0653 43.976 15.0753C41.0392 15.128 38.3993 17.8079 38.3112 20.9119C38.271 22.3197 38.3012 23.7299 38.2986 25.1376C38.2986 25.9682 38.2986 26.7987 38.2986 27.6494H56.7173L56.7122 27.6444ZM26.1487 15.1782C25.7637 16.3275 25.5171 17.4642 25.8216 18.7264C26.2041 20.3022 26.3928 21.9257 26.6999 23.5216C26.8307 24.2016 26.6269 24.6859 26.043 25.0272C22.7992 26.9267 23.8159 26.869 20.8313 25.1376C20.7759 25.105 20.723 25.0724 20.6677 25.0422C20.0637 24.7185 19.8473 24.2292 19.9756 23.5567C20.1719 22.543 20.3581 21.5292 20.5192 20.5105C20.8036 18.7188 21.4881 16.9197 20.4236 15.1406C17.3609 14.8645 14.5399 17.1204 14.258 20.3775C14.0517 22.7613 14.2178 25.1752 14.2178 27.6143H32.4502C32.4502 25.5316 32.4502 23.504 32.4502 21.474C32.4502 21.1303 32.4552 20.784 32.4149 20.4427C32.0198 17.1405 29.1661 14.7341 26.1412 15.1807L26.1487 15.1782ZM62.6161 27.5992H80.856C80.856 25.2505 80.9391 22.9645 80.8359 20.6861C80.6824 17.3186 77.6474 14.7165 74.5445 15.1682C74.1016 16.3551 73.9003 17.5269 74.2199 18.8167C74.5999 20.3599 74.7786 21.9533 75.0705 23.5216C75.2039 24.2368 74.9598 24.7185 74.3407 25.0849C71.2 26.9342 72.1462 26.8188 69.2849 25.1853C69.1767 25.1225 69.0157 25.0824 68.9704 24.9895C68.7489 24.5178 68.3614 24.021 68.3941 23.5542C68.467 22.4702 68.7565 21.4013 68.9402 20.3223C69.2346 18.5883 69.826 16.8444 68.8143 15.1356C65.6712 14.862 62.8224 17.2986 62.6412 20.5958C62.5154 22.9018 62.6161 25.2204 62.6161 27.5992ZM47.6199 74.4377C43.9181 74.4377 40.2137 74.4277 36.5119 74.4502C36.1319 74.4502 35.46 74.5858 35.4247 74.7589C35.2511 75.6171 35.1026 76.5279 35.2284 77.3786C35.3341 78.0812 36.1193 78.0084 36.7258 78.0084C43.8803 78.0059 51.0324 78.0084 58.1869 78.0084C59.9863 78.0084 60.1574 77.8353 60.1473 76.0135C60.1423 74.7062 59.8755 74.4427 58.5367 74.4402C54.8978 74.4402 51.2564 74.4402 47.6174 74.4402L47.6199 74.4377ZM82.444 53.0685V74.3624H85.7205V53.0685H82.444ZM9.54955 53.0635V74.39H12.6273V53.0635H9.54955ZM47.5948 30.6179C45.0531 30.6154 42.9643 32.7784 42.9719 35.4132C42.9769 37.9501 45.0128 40.0127 47.5419 40.0428C50.0887 40.0729 52.2202 37.9726 52.2328 35.4207C52.2428 32.8135 50.1289 30.6204 47.5973 30.6179H47.5948ZM51.8779 6.70432C51.883 4.19503 50.0056 2.27291 47.5394 2.26789C45.0682 2.26287 43.1782 4.17495 43.1782 6.68174C43.1782 9.18099 45.0757 11.1307 47.5168 11.1357C49.9629 11.1408 51.8729 9.20107 51.8805 6.70683L51.8779 6.70432ZM23.3856 2.45107C20.9495 2.42597 18.9891 4.33304 18.9665 6.74949C18.9438 9.06306 20.9168 11.083 23.2471 11.1307C25.6404 11.1809 27.6536 9.24875 27.7065 6.84986C27.7593 4.46101 25.8115 2.47616 23.3856 2.45107ZM71.7663 2.45107C69.3378 2.42597 67.3623 4.34308 67.3396 6.74698C67.3195 9.05804 69.295 11.0805 71.6228 11.1307C74.0211 11.1834 76.0142 9.26631 76.0721 6.84986C76.13 4.44847 74.1972 2.47616 71.7637 2.45107H71.7663ZM62.45 50.7048H92.6939V48.9408H62.45V50.7048ZM62.3971 74.9521C63.5019 74.9421 63.7234 74.7288 63.7259 73.6824C63.7309 70.335 63.7284 66.9851 63.7259 63.6377C63.7259 63.4294 63.6781 63.2212 63.6554 63.0204H62.3694C62.6186 65.3942 62.3267 67.502 59.5534 68.2623V72.1066C61.081 72.3826 62.0222 73.3637 62.3971 74.9521ZM54.4876 90.9338C54.3568 89.5186 53.5062 88.5726 52.2101 88.55C49.1425 88.4973 46.0723 88.4948 43.0046 88.5525C41.6608 88.5776 40.7246 89.6967 40.8303 90.9313H54.4876V90.9338ZM31.3303 63.0129C31.3303 66.7216 31.3202 70.34 31.3353 73.9584C31.3404 74.8969 31.9469 75.0751 32.7874 74.9621C33.0793 73.5645 33.9073 72.6235 35.0951 72.2195C35.0951 71.0075 35.0749 69.921 35.1026 68.8344C35.1152 68.3552 35.002 68.0716 34.5314 67.8157C33.3964 67.2009 32.8528 66.1796 32.8352 64.8873C32.8277 64.2725 32.8352 63.6553 32.8352 63.0104H31.3303V63.0129ZM37.36 68.2774C37.36 69.266 37.2744 70.1819 37.4002 71.0677C37.4556 71.4617 37.9186 72.0915 38.2257 72.1091C39.9923 72.2094 41.769 72.1567 43.523 72.1567V68.2774H37.3625H37.36ZM51.7144 72.1818C53.2646 72.1818 54.7066 72.1869 56.1485 72.1818C56.8054 72.1793 57.2634 71.8456 57.3011 71.1907C57.359 70.2346 57.3162 69.2736 57.3162 68.305H51.7144V72.1844V72.1818ZM40.8756 44.7026H54.2813C53.2897 43.7315 52.2101 43.2974 50.9997 43.2748C48.7146 43.2346 46.4296 43.2346 44.1446 43.2748C42.9543 43.2974 41.8973 43.749 40.8756 44.7026ZM48.7801 86.2264V80.3345H46.3969V86.2264H48.7801ZM49.3715 68.3075H45.876V72.1292H49.3715V68.3075ZM23.4787 18.5331C23.3906 18.5181 23.3025 18.5055 23.2119 18.4905C22.9225 20.0412 22.5878 21.5844 22.394 23.1452C22.3638 23.3786 23.0156 23.9382 23.3075 23.9106C23.6699 23.8754 24.3016 23.346 24.2714 23.095C24.0927 21.5644 23.758 20.0513 23.4761 18.5331H23.4787ZM71.8443 18.493C71.7587 18.493 71.6731 18.493 71.5876 18.493C71.2982 20.0663 70.966 21.6371 70.7672 23.223C70.742 23.4263 71.4114 23.8955 71.7713 23.908C72.0783 23.9206 72.6999 23.4137 72.6722 23.2029C72.4659 21.6221 72.1337 20.0588 71.8418 18.4905L71.8443 18.493ZM47.6678 18.508C47.5746 18.508 47.4815 18.5131 47.3884 18.5156C47.1166 20.0111 46.8423 21.5041 46.5781 22.9997C46.4523 23.7173 47.0915 23.9306 47.4891 23.8955C47.8439 23.8654 48.4655 23.3259 48.4378 23.0699C48.2667 21.5393 47.9421 20.0262 47.6703 18.508H47.6678ZM28.3457 59.9842C28.9144 60.7721 30.7062 60.9327 32.8981 60.614C32.7698 60.3781 32.6691 60.0118 32.5559 60.0093C31.2322 59.9691 29.9085 59.9842 28.3457 59.9842ZM62.3267 60.486C62.3846 60.5638 62.4424 60.6441 62.5003 60.7219C63.6529 60.7219 64.8029 60.7395 65.9555 60.7043C66.1418 60.6993 66.3229 60.4634 66.5041 60.3355C66.3204 60.215 66.1367 59.9967 65.948 59.9917C64.9162 59.9566 63.8844 59.9515 62.8526 59.9992C62.6689 60.0067 62.5003 60.3179 62.3267 60.486Z" fill="#12A89D"/>
<path d="M25.6523 34.8031C23.0477 34.8031 20.443 34.8056 17.8384 34.8031C16.8519 34.8031 16.3033 34.389 16.3008 33.6789C16.3008 32.9662 16.8469 32.5522 17.8334 32.5522C23.0728 32.5497 28.3123 32.5472 33.5543 32.5522C34.5181 32.5522 35.112 33.0089 35.034 33.719C34.9384 34.5722 34.352 34.8131 33.5593 34.8081C30.9245 34.793 28.2871 34.8031 25.6523 34.8031Z" fill="#12A89D"/>
<path d="M12.92 34.8158C12.608 34.8007 12.2053 34.9036 12.0015 34.748C11.6441 34.477 11.1836 34.0479 11.1836 33.6841C11.1836 33.3177 11.6215 32.7456 11.9839 32.6302C12.5526 32.4495 13.2673 32.437 13.831 32.6252C14.2186 32.7531 14.669 33.3252 14.6917 33.7242C14.7118 34.058 14.206 34.4946 13.8411 34.753C13.6322 34.9011 13.2346 34.7806 12.92 34.7806C12.92 34.7932 12.92 34.8082 12.92 34.8208V34.8158Z" fill="#12A89D"/>
</svg>
