<svg width="399" height="133" viewBox="0 0 399 133" fill="none" xmlns="http://www.w3.org/2000/svg">
<path d="M387.026 29.7535C388.378 28.4378 390.044 27.7739 392.011 27.7739C393.979 27.7739 395.632 28.4378 396.996 29.7535C398.336 31.0693 399 32.6747 399 34.5577C399 36.4408 398.336 38.0462 396.996 39.3619C395.644 40.6776 393.979 41.3415 392.011 41.3415C390.044 41.3415 388.39 40.6776 387.026 39.3619C385.674 38.0462 384.998 36.4408 384.998 34.5577C384.998 32.6747 385.674 31.0693 387.026 29.7535ZM392.011 40.0016C393.592 40.0016 394.908 39.4826 395.958 38.4324C397.032 37.3702 397.564 36.0786 397.564 34.5698C397.564 33.0609 397.032 31.7452 395.958 30.6709C394.908 29.6208 393.592 29.1017 392.011 29.1017C390.43 29.1017 389.078 29.6208 388.028 30.6709C386.978 31.7211 386.422 33.0368 386.422 34.5698C386.422 36.1028 386.953 37.3702 388.028 38.4324C389.102 39.4947 390.406 40.0016 392.011 40.0016ZM394.727 35.9338L394.811 36.996C394.836 37.4185 394.944 37.7927 395.162 38.1186H393.87C393.701 37.8892 393.604 37.5151 393.58 36.996L393.52 36.2476C393.484 35.8493 393.387 35.5717 393.242 35.4147C393.097 35.2578 392.856 35.1854 392.518 35.1854H390.538V38.1065H389.283V30.8399H392.373C393.17 30.8399 393.798 31.021 394.244 31.371C394.691 31.7211 394.92 32.228 394.92 32.8799C394.92 33.7248 394.57 34.2922 393.858 34.5939C394.377 34.7871 394.655 35.2337 394.715 35.9338H394.727ZM390.55 34.0387H392.494C393.254 34.0387 393.641 33.7007 393.641 33.0126C393.641 32.3246 393.218 31.9866 392.385 31.9866H390.55V34.0507V34.0387Z" fill="white"/>
<path d="M33.3033 93.1243C33.3033 93.6434 33.255 94.1383 33.1101 94.6091C31.5047 94.4401 29.9596 94.3314 28.3301 94.2831H28.3059C27.0627 94.2107 25.7831 94.1866 24.5157 94.1866C23.0552 94.1866 21.6187 94.2349 20.1823 94.3073C19.3373 94.3314 18.5165 94.4039 17.6595 94.4763C15.6799 94.6211 13.7244 94.8505 11.8052 95.1402C12.4691 94.1021 13.1692 93.0881 13.9176 92.1225C16.0058 91.869 18.1061 91.7 20.2427 91.6276C21.4618 91.5551 22.693 91.531 23.9122 91.531C27.0385 91.531 30.1286 91.7 33.1825 92.0259C33.255 92.376 33.2791 92.7502 33.2791 93.1364L33.3033 93.1243Z" fill="white"/>
<path d="M29.61 99.2208C29.4893 100.162 29.1633 101.031 28.6684 101.78C27.3044 101.707 25.9163 101.683 24.5282 101.683C22.1985 101.683 19.8688 101.78 17.5875 101.961C14.437 102.19 11.3227 102.649 8.26881 103.228C8.54644 102.214 8.88442 101.225 9.25862 100.259C11.6607 99.8606 14.0869 99.5347 16.5494 99.3415C18.9273 99.1243 21.3053 99.0156 23.7315 99.0156H23.9488C25.7352 99.0156 27.5217 99.0639 29.2841 99.2088H29.3082C29.4048 99.1846 29.5255 99.2088 29.61 99.2088V99.2208Z" fill="white"/>
<path d="M25.7593 107.417C25.7593 107.767 25.7834 108.117 25.8559 108.479C25.4334 108.455 24.9868 108.455 24.5401 108.455C18.5651 108.455 12.7108 109.071 7.06165 110.218C7.13407 109.252 7.23064 108.31 7.36342 107.393C12.7228 106.331 18.2754 105.788 23.9487 105.788C24.6367 105.788 25.2885 105.788 25.9524 105.812C25.8317 106.331 25.7593 106.874 25.7593 107.417Z" fill="white"/>
<path d="M66.2925 73.7879C66.2925 75.5502 65.6045 77.1798 64.4578 78.3748C61.2107 77.735 57.8671 77.4091 54.439 77.4091H54.1855C50.5884 77.4333 47.0758 77.8075 43.696 78.5197C42.6821 77.3609 42.0665 75.8641 42.0665 74.1862C42.0665 73.1964 42.2837 72.2791 42.6579 71.4341H42.6821C46.2792 70.5891 50.0453 70.1425 53.8838 70.1184C54.0045 70.0942 54.1131 70.0942 54.2338 70.0942H54.4511C58.362 70.0942 62.1643 70.5167 65.8338 71.3375C66.1356 72.0859 66.3046 72.9188 66.3046 73.7879H66.2925Z" fill="white"/>
<path d="M75.7083 117.858C75.7083 118.112 75.6842 118.401 75.6601 118.655C72.0871 120.26 68.3934 121.624 64.6032 122.699C56.9986 124.908 48.9836 126.091 40.6789 126.091C33.6899 126.091 26.9182 125.27 20.4241 123.664C16.2839 122.674 12.2884 121.383 8.40163 119.826C8.42577 117.375 9.76563 115.263 11.7452 114.128C14.7146 115.215 17.7686 116.108 20.8949 116.832C27.2441 118.341 33.8589 119.138 40.6789 119.138C48.2835 119.138 55.6467 118.148 62.684 116.289C66.3052 115.323 69.8661 114.153 73.2942 112.74H73.3183C74.7789 113.935 75.7204 115.77 75.7204 117.846L75.7083 117.858Z" fill="white"/>
<path d="M73.1491 14.0008C73.1491 16.0287 72.2318 17.8393 70.7953 19.0584C67.5724 18.3342 64.2771 17.8151 60.9335 17.4772H60.9094C58.0365 17.1754 55.1395 17.0305 52.2305 17.0305C48.2592 17.0305 44.3482 17.284 40.5097 17.8272C37.4558 18.2256 34.4623 18.817 31.5411 19.5413C29.7064 18.3704 28.5114 16.3184 28.5114 13.9887C28.5114 13.7956 28.5114 13.5904 28.5355 13.3972C32.5551 12.2384 36.6712 11.3693 40.9081 10.8141H40.9322C44.6259 10.3433 48.3919 10.0898 52.2305 10.0898C55.1516 10.0898 58.0365 10.2347 60.9094 10.5365C65.0255 10.9348 69.0451 11.647 72.9801 12.6247H73.0043C73.1008 13.0472 73.1491 13.5179 73.1491 13.9887V14.0008Z" fill="white"/>
<path d="M35.6573 38.5286C32.5551 39.12 29.3805 39.4218 26.1093 39.4218C25.88 39.4218 25.6144 39.4218 25.3851 39.3976C25.035 39.4218 24.685 39.3977 24.3229 39.3735C20.7258 39.2769 17.2132 38.782 13.8575 37.9612C14.799 37.0197 16.0182 36.3558 17.358 36.1265H17.3822C18.6737 36.3558 19.9894 36.5248 21.3293 36.6214C22.9106 36.7904 24.5039 36.8507 26.1093 36.8507C26.556 36.8507 27.0267 36.8507 27.4733 36.8266C29.7306 36.7783 31.9637 36.5731 34.1364 36.2351C34.6796 36.9835 35.1745 37.744 35.6694 38.5165L35.6573 38.5286Z" fill="white"/>
<path d="M26.1088 32.1552C23.7791 32.1552 21.4977 32.0104 19.2646 31.6844C19.5905 30.9119 19.7595 30.079 19.7837 29.1858C21.8598 29.4634 23.9722 29.5841 26.1088 29.5841C26.9296 29.5841 27.7745 29.56 28.6074 29.5117C29.3799 30.2842 30.1163 31.093 30.7922 31.9138C29.2351 32.0828 27.69 32.1431 26.1088 32.1431V32.1552Z" fill="white"/>
<path d="M31.239 58.4326C30.5148 59.3741 29.706 60.2915 28.8852 61.1847C27.9678 61.233 27.0263 61.2571 26.1089 61.2571C24.7691 61.2571 23.4534 61.2089 22.1376 61.0881C21.0271 60.1708 19.9528 59.2051 18.9389 58.1912C21.2686 58.5171 23.6706 58.6861 26.121 58.6861C27.8592 58.6861 29.5612 58.5895 31.2511 58.4326H31.239Z" fill="white"/>
<path d="M36.6468 50.2736C36.1277 51.2634 35.5604 52.229 34.981 53.1705C32.084 53.6654 29.1267 53.9189 26.109 53.9189C22.8861 53.9189 19.7115 53.6172 16.6213 53.0498C15.704 52.8808 14.8107 52.6998 13.9175 52.4825C13.145 51.4686 12.3845 50.4063 11.7085 49.332C13.7123 49.9235 15.7764 50.3701 17.8767 50.696C20.5564 51.1185 23.3086 51.3358 26.109 51.3358C29.7302 51.3358 33.2428 50.9857 36.6468 50.2736Z" fill="white"/>
<path d="M37.2141 45.445C33.6411 46.2175 29.9233 46.6159 26.109 46.6159C25.3606 46.6159 24.6001 46.5917 23.8517 46.5676C22.7171 46.5193 21.5945 46.4227 20.484 46.3141C17.6836 46.0365 14.9556 45.5174 12.3241 44.7811H12.3C11.9017 44.6845 11.5033 44.5638 11.1291 44.4552C11.105 43.8637 11.0808 43.2602 11.0808 42.6446C11.0808 42.3911 11.0808 42.1014 11.105 41.8479C11.3826 41.9445 11.6723 42.041 11.9741 42.1014C15.2453 43.0188 18.613 43.6344 22.0894 43.8637C23.0551 43.9603 24.0207 43.9844 25.0105 44.0086C25.3847 44.0327 25.7348 44.0327 26.121 44.0327C29.7906 44.0327 33.3635 43.6585 36.8278 42.8981C37.021 43.7189 37.1296 44.588 37.2262 45.445H37.2141Z" fill="white"/>
<path d="M32.084 87.7058C30.2251 87.5851 28.3421 87.5127 26.4349 87.5127C24.3225 87.5127 22.2463 87.5851 20.1702 87.742C21.2083 86.7281 22.2584 85.7141 23.3448 84.7485C24.2622 84.7243 25.2037 84.7002 26.1452 84.7002C27.8351 84.7002 29.513 84.7485 31.1787 84.8692C31.4805 85.8107 31.7943 86.7522 32.072 87.6938L32.084 87.7058Z" fill="white"/>
<path d="M17.8044 25.4443V25.6737H17.7803C17.732 29.319 16.199 32.5902 13.7607 34.9682C11.431 37.0443 9.82563 39.9051 9.4273 43.1522C8.83583 41.6433 8.50992 40.0258 8.50992 38.2997C8.50992 38.2031 8.50992 38.1307 8.53406 38.0462C8.58234 34.4974 10.0429 31.3228 12.3726 28.969C12.7226 28.6189 13.0727 28.3051 13.4589 28.0033C15.2937 26.1927 16.5853 23.8148 17.1043 21.1592C17.5509 22.499 17.8044 23.9355 17.8044 25.4443Z" fill="white"/>
<path d="M38.0596 97.9297V98.159H38.0355C37.9872 101.804 36.4542 105.076 34.0159 107.454C31.6862 109.53 30.0808 112.39 29.6825 115.638C29.091 114.129 28.7651 112.511 28.7651 110.785C28.7651 110.688 28.7651 110.616 28.7892 110.532C28.8375 106.983 30.2981 103.808 32.6278 101.454C32.9778 101.104 33.3279 100.79 33.7141 100.489C35.5489 98.678 36.8405 96.3001 37.3595 93.6445C37.8061 94.9844 38.0596 96.4208 38.0596 97.9297Z" fill="white"/>
<path d="M25.5902 65.4462C22.814 67.45 19.7118 69.0192 16.3682 70.0814C12.7952 66.9551 9.92235 63.0683 7.96688 58.6745C6.1804 54.5825 5.16646 50.068 5.16646 45.3121C5.16646 42.2099 5.58894 39.2164 6.38561 36.3677C6.63909 45.6139 10.6949 53.8945 17.02 59.7609C19.5669 62.0905 22.4277 64.0219 25.5902 65.4583V65.4462Z" fill="white"/>
<path d="M25.5902 65.4462C22.814 67.45 19.7118 69.0192 16.3682 70.0814C12.7952 66.9551 9.92235 63.0683 7.96688 58.6745C6.1804 54.5825 5.16646 50.068 5.16646 45.3121C5.16646 42.2099 5.58894 39.2164 6.38561 36.3677C6.63909 45.6139 10.6949 53.8945 17.02 59.7609C19.5669 62.0905 22.4277 64.0219 25.5902 65.4583V65.4462Z" fill="white"/>
<path d="M40.5702 39.76C40.5702 41.9931 40.196 44.1417 39.5079 46.1334C39.0372 47.5456 38.3733 48.9096 37.6008 50.1529C38.0474 48.5234 38.2888 46.8335 38.2888 45.0711C38.2888 37.9132 34.4986 31.6363 28.8012 28.1479C28.608 28.0272 28.427 27.9185 28.2097 27.822C28.0166 27.7013 27.8355 27.5926 27.6424 27.4961C24.5643 25.6854 22.0174 23.0782 20.3275 19.9156C18.7703 17.091 17.9012 13.8681 17.9012 10.428C17.9012 9.95721 17.9254 9.48645 17.9495 9.01569C18.1668 5.93763 19.0842 3.06479 20.5327 0.541992C20.2792 1.5318 20.1343 2.54574 20.0619 3.57176C20.0378 4.04252 20.0136 4.51328 20.0136 4.98404C20.0136 12.3231 23.9849 18.7206 29.9237 22.1608C29.972 22.1849 30.0203 22.2091 30.0686 22.2332C30.4186 22.4263 30.7566 22.6074 31.0825 22.8247C34.0519 24.6353 36.4902 27.2064 38.1439 30.2603C39.7011 33.0607 40.5702 36.3077 40.5702 39.7479V39.76Z" fill="white"/>
<path d="M41.415 91.4836C41.415 93.8857 41.1615 96.1913 40.6666 98.4243C39.4474 91.3871 36.0314 85.1103 31.1186 80.3302C33.3758 78.9662 35.4279 77.3125 37.2626 75.4778C37.7575 76.3227 38.2041 77.216 38.6025 78.1334C40.4131 82.2012 41.427 86.7157 41.427 91.4716L41.415 91.4836Z" fill="white"/>
<path d="M45.3741 50.6473C45.3741 58.3605 42.7427 65.4461 38.2886 71.0711C34.9208 75.3804 30.4788 78.8326 25.3728 81.0295C25.3245 81.0536 25.2763 81.0778 25.2521 81.0778C24.7331 81.3071 24.214 81.5244 23.6708 81.7175C23.6226 81.7417 23.5743 81.7417 23.526 81.7658C11.7811 86.8476 3.54884 98.5442 3.54884 112.148C3.54884 115.117 3.92304 117.954 4.65935 120.694C1.68994 115.733 3.05176e-05 109.915 3.05176e-05 103.735C3.05176e-05 96.0214 2.63146 88.9359 7.06144 83.3109C10.4292 79.0257 14.823 75.5976 19.8806 73.4007C20.7014 73.1231 21.5102 72.8093 22.2827 72.4592C34.0276 67.4016 42.2357 55.705 42.2357 42.1012C42.2357 39.7474 42.0064 37.4419 41.5115 35.2329C43.986 39.8198 45.3741 45.0947 45.3741 50.6714V50.6473Z" fill="white"/>
<path d="M114.745 7.0603C115.24 17.5498 115.566 28.0393 115.735 38.5288C115.94 49.0184 115.988 59.5079 116.013 69.9974C115.988 80.4869 115.94 90.9764 115.735 101.466C115.566 111.955 115.24 122.445 114.745 132.934C114.25 122.445 113.912 111.955 113.755 101.466C113.55 90.9764 113.502 80.4869 113.478 69.9974C113.502 59.5079 113.562 49.0184 113.755 38.5288C113.924 28.0393 114.25 17.5498 114.745 7.0603Z" fill="white"/>
<path d="M164.102 119.27V105.147H155.664V101.586H177.452V105.147H169.014V119.27H164.114H164.102Z" fill="white"/>
<path d="M179.456 119.27V99.824H184.224V108.901C185.153 107.767 186.155 106.946 187.241 106.439C188.328 105.932 189.45 105.666 190.597 105.642C192.045 105.582 193.301 105.702 194.339 106.004C195.389 106.306 196.246 106.728 196.91 107.272C197.574 107.815 198.069 108.467 198.383 109.203C198.696 109.951 198.853 110.724 198.853 111.545V119.258H194.085V112.015C194.085 111.026 193.723 110.265 193.011 109.698C192.299 109.143 191.152 108.865 189.571 108.865C187.772 108.865 186.42 109.191 185.527 109.855C184.634 110.519 184.187 111.4 184.187 112.51V119.246H179.419L179.456 119.27Z" fill="white"/>
<path d="M219.953 114.804C219.579 116.47 218.565 117.677 216.911 118.425C215.258 119.174 213.024 119.536 210.2 119.536C208.45 119.536 206.953 119.33 205.697 118.932C204.442 118.534 203.416 118.003 202.619 117.327C201.823 116.663 201.231 115.89 200.869 115.033C200.507 114.176 200.314 113.259 200.314 112.317C200.314 111.376 200.495 110.519 200.845 109.698C201.195 108.877 201.774 108.153 202.571 107.525C203.368 106.898 204.418 106.403 205.71 106.04C207.001 105.678 208.582 105.497 210.465 105.497C211.986 105.497 213.362 105.654 214.606 105.968C215.837 106.282 216.887 106.765 217.744 107.417C218.601 108.068 219.241 108.889 219.675 109.867C220.11 110.845 220.279 112.016 220.195 113.38H204.925C204.985 113.838 205.154 114.273 205.456 114.671C205.758 115.069 206.144 115.42 206.615 115.721C207.086 116.023 207.641 116.252 208.281 116.421C208.92 116.59 209.608 116.675 210.357 116.675C211.383 116.675 212.204 116.615 212.819 116.482C213.447 116.349 213.93 116.192 214.292 116.011C214.654 115.83 214.908 115.625 215.04 115.395C215.173 115.166 215.282 114.973 215.33 114.816H219.953V114.804ZM215.354 111.038C215.282 110.736 215.137 110.434 214.92 110.12C214.702 109.807 214.401 109.517 214.014 109.275C213.628 109.022 213.133 108.829 212.53 108.672C211.926 108.527 211.178 108.455 210.284 108.455C208.703 108.455 207.496 108.708 206.651 109.227C205.806 109.746 205.263 110.35 205.022 111.05H215.354V111.038Z" fill="white"/>
<path d="M222.15 105.751H226.857L226.882 109.312C227.847 106.898 229.73 105.691 232.531 105.691H235.428V109.372L232.193 109.396C231.444 109.396 230.756 109.493 230.117 109.686C229.477 109.879 228.922 110.145 228.451 110.483C227.98 110.821 227.606 111.207 227.316 111.654C227.038 112.1 226.894 112.571 226.894 113.078V119.258H222.126V105.751H222.15Z" fill="white"/>
<path d="M249.78 109.686C249.708 109.348 249.466 109.107 249.068 108.938C248.67 108.769 248.223 108.66 247.74 108.588C247.257 108.527 246.775 108.491 246.28 108.479C245.785 108.479 245.398 108.467 245.121 108.467C244.879 108.467 244.517 108.491 244.047 108.527C243.576 108.563 243.105 108.636 242.634 108.744C242.176 108.853 241.765 109.022 241.427 109.239C241.089 109.469 240.908 109.758 240.908 110.133H236.261C236.261 109.445 236.418 108.853 236.72 108.346C237.021 107.839 237.432 107.417 237.927 107.079C238.422 106.741 239.001 106.463 239.641 106.258C240.28 106.053 240.932 105.896 241.608 105.787C242.272 105.679 242.936 105.606 243.576 105.57C244.215 105.534 244.783 105.51 245.29 105.51C245.664 105.51 246.147 105.522 246.75 105.546C247.354 105.57 247.994 105.642 248.67 105.739C249.346 105.835 250.034 105.98 250.734 106.149C251.434 106.318 252.062 106.548 252.617 106.837C253.172 107.127 253.631 107.477 253.981 107.9C254.331 108.322 254.512 108.817 254.512 109.384V115.842C254.512 115.987 254.572 116.096 254.705 116.168C254.838 116.228 254.983 116.265 255.164 116.277C255.345 116.277 255.514 116.277 255.695 116.277C255.876 116.277 256.021 116.253 256.129 116.24V119.282C255.719 119.282 255.284 119.282 254.826 119.306C254.367 119.319 253.884 119.331 253.401 119.331C253.027 119.331 252.641 119.294 252.218 119.234C251.796 119.174 251.422 119.053 251.06 118.884C250.71 118.715 250.408 118.486 250.166 118.196C249.925 117.906 249.804 117.544 249.804 117.097C249.454 117.556 249.008 117.954 248.476 118.28C247.945 118.606 247.378 118.872 246.762 119.077C246.147 119.282 245.519 119.427 244.879 119.524C244.24 119.62 243.648 119.669 243.105 119.669C242.453 119.669 241.693 119.62 240.824 119.512C239.955 119.403 239.11 119.21 238.313 118.896C237.516 118.594 236.84 118.16 236.297 117.604C235.754 117.049 235.476 116.325 235.476 115.432C235.476 114.683 235.694 114.068 236.116 113.561C236.538 113.054 237.094 112.643 237.77 112.305C238.446 111.967 239.218 111.714 240.063 111.521C240.92 111.34 241.777 111.195 242.634 111.086C243.503 110.99 244.324 110.917 245.097 110.881C245.881 110.845 246.533 110.797 247.076 110.748C247.378 110.712 247.692 110.676 248.018 110.64C248.344 110.603 248.658 110.543 248.923 110.459C249.189 110.374 249.406 110.277 249.575 110.157C249.744 110.036 249.792 109.879 249.744 109.698L249.78 109.686ZM249.84 112.438C249.599 112.583 249.285 112.704 248.899 112.788C248.513 112.873 248.078 112.957 247.595 113.054C246.883 113.162 246.123 113.271 245.278 113.38C244.445 113.476 243.66 113.597 242.936 113.742C242.212 113.887 241.608 114.068 241.125 114.285C240.643 114.514 240.401 114.816 240.401 115.202C240.401 115.552 240.558 115.842 240.86 116.059C241.162 116.277 241.524 116.458 241.946 116.591C242.369 116.723 242.791 116.808 243.214 116.844C243.636 116.88 243.974 116.904 244.215 116.904C244.566 116.904 245.06 116.856 245.688 116.759C246.316 116.663 246.943 116.518 247.559 116.301C248.175 116.084 248.706 115.818 249.165 115.48C249.623 115.142 249.853 114.732 249.853 114.261V112.45L249.84 112.438Z" fill="white"/>
<path d="M262.575 116.228V124.859H257.807V105.775H262.43V108.841C262.672 108.455 263.034 108.057 263.504 107.67C263.975 107.284 264.53 106.934 265.158 106.62C265.786 106.318 266.474 106.065 267.21 105.884C267.946 105.703 268.695 105.606 269.455 105.606C270.807 105.606 272.075 105.763 273.233 106.077C274.392 106.391 275.394 106.85 276.239 107.453C277.084 108.057 277.748 108.781 278.231 109.638C278.714 110.495 278.955 111.448 278.955 112.511C278.955 113.573 278.714 114.527 278.231 115.384C277.748 116.241 277.084 116.965 276.239 117.556C275.394 118.148 274.392 118.606 273.233 118.932C272.075 119.258 270.819 119.415 269.492 119.415C268.743 119.415 268.019 119.319 267.307 119.138C266.595 118.957 265.931 118.703 265.315 118.401C264.699 118.099 264.156 117.749 263.685 117.375C263.215 117.001 262.841 116.615 262.587 116.216L262.575 116.228ZM268.369 108.733C267.536 108.733 266.764 108.817 266.051 108.998C265.339 109.179 264.736 109.433 264.217 109.771C263.698 110.109 263.287 110.495 262.985 110.954C262.684 111.412 262.539 111.919 262.539 112.474C262.539 113.03 262.684 113.537 262.985 113.995C263.287 114.454 263.685 114.84 264.192 115.178C264.699 115.516 265.315 115.77 266.027 115.939C266.739 116.12 267.512 116.204 268.357 116.204C269.202 116.204 270.023 116.12 270.723 115.939C271.423 115.758 272.038 115.504 272.557 115.178C273.077 114.84 273.475 114.454 273.753 113.995C274.03 113.537 274.175 113.03 274.175 112.474C274.175 111.919 274.03 111.388 273.753 110.929C273.475 110.471 273.077 110.084 272.557 109.759C272.038 109.433 271.423 109.179 270.723 109.01C270.023 108.829 269.226 108.745 268.357 108.745L268.369 108.733Z" fill="white"/>
<path d="M300.176 114.804C299.801 116.47 298.787 117.677 297.134 118.425C295.48 119.174 293.247 119.536 290.422 119.536C288.672 119.536 287.175 119.33 285.92 118.932C284.665 118.534 283.639 118.003 282.842 117.327C282.045 116.663 281.454 115.89 281.092 115.033C280.73 114.176 280.536 113.259 280.536 112.317C280.536 111.376 280.717 110.519 281.067 109.698C281.418 108.877 281.997 108.153 282.794 107.525C283.59 106.898 284.64 106.403 285.932 106.04C287.224 105.678 288.805 105.497 290.688 105.497C292.209 105.497 293.585 105.654 294.828 105.968C296.059 106.282 297.11 106.765 297.967 107.417C298.824 108.068 299.463 108.889 299.898 109.867C300.332 110.857 300.501 112.016 300.417 113.38H285.147C285.208 113.838 285.377 114.273 285.679 114.671C285.98 115.069 286.367 115.42 286.837 115.721C287.308 116.023 287.863 116.252 288.503 116.421C289.143 116.59 289.831 116.675 290.579 116.675C291.605 116.675 292.426 116.615 293.042 116.482C293.669 116.349 294.152 116.192 294.514 116.011C294.876 115.83 295.13 115.625 295.263 115.395C295.396 115.166 295.504 114.973 295.552 114.816H300.176V114.804ZM295.577 111.038C295.504 110.736 295.359 110.434 295.142 110.12C294.925 109.807 294.623 109.517 294.237 109.275C293.85 109.022 293.356 108.829 292.752 108.672C292.148 108.527 291.4 108.455 290.507 108.455C288.926 108.455 287.718 108.708 286.874 109.227C286.029 109.746 285.485 110.35 285.244 111.05H295.577V111.038Z" fill="white"/>
<path d="M316.809 119.294V116.252C316.459 116.88 316.024 117.411 315.53 117.822C315.035 118.244 314.467 118.57 313.864 118.811C313.248 119.053 312.596 119.222 311.92 119.318C311.232 119.415 310.52 119.451 309.772 119.451C308.432 119.451 307.285 119.306 306.32 119.017C305.354 118.727 304.557 118.317 303.942 117.785C303.314 117.254 302.867 116.627 302.578 115.89C302.288 115.154 302.143 114.345 302.143 113.452V105.739H306.875V113.126C306.875 113.633 306.935 114.092 307.056 114.502C307.177 114.925 307.394 115.275 307.72 115.576C308.046 115.878 308.504 116.096 309.084 116.264C309.663 116.421 310.436 116.506 311.377 116.506C313.164 116.506 314.479 116.156 315.336 115.444C316.193 114.732 316.616 113.814 316.616 112.655V105.751H321.384V119.258L316.821 119.282L316.809 119.294Z" fill="white"/>
<path d="M330.872 114.924C330.872 115.334 331.041 115.612 331.391 115.769C331.741 115.926 332.272 116.01 333.02 116.01C333.358 116.01 333.648 116.01 333.914 115.998C334.179 115.986 334.433 115.986 334.698 115.974C334.964 115.974 335.229 115.95 335.507 115.938C335.785 115.926 336.099 115.902 336.449 115.878V119.028C335.205 119.245 333.938 119.366 332.658 119.366C331.463 119.366 330.461 119.294 329.641 119.149C328.82 119.004 328.144 118.763 327.625 118.437C327.106 118.111 326.732 117.688 326.49 117.181C326.249 116.674 326.14 116.047 326.14 115.298V108.756H322.905V105.774H326.14V101.513H330.872V105.774H336.69V108.756H330.872V114.936V114.924Z" fill="white"/>
<path d="M338.392 100.234H343.268V103.771H338.392V100.234ZM338.452 119.257V105.75H343.22V119.257H338.452Z" fill="white"/>
<path d="M355.496 116.144C356.124 116.144 356.727 116.108 357.307 116.035C357.886 115.963 358.405 115.83 358.864 115.661C359.322 115.48 359.733 115.251 360.059 114.949C360.385 114.647 360.638 114.285 360.807 113.839L365.623 113.814C365.418 114.877 365.008 115.758 364.38 116.47C363.752 117.182 362.992 117.762 362.087 118.196C361.181 118.631 360.155 118.944 359.009 119.138C357.862 119.331 356.679 119.427 355.46 119.427C354.011 119.427 352.659 119.307 351.392 119.065C350.124 118.824 349.038 118.425 348.121 117.882C347.203 117.339 346.479 116.615 345.948 115.722C345.417 114.828 345.151 113.73 345.151 112.438C345.151 111.219 345.393 110.157 345.875 109.276C346.358 108.395 347.046 107.67 347.94 107.115C348.833 106.56 349.919 106.149 351.187 105.872C352.454 105.606 353.878 105.461 355.46 105.461C361.495 105.461 364.911 107.429 365.708 111.364H360.855C360.578 110.374 359.962 109.698 359.021 109.312C358.079 108.926 356.884 108.745 355.46 108.745C354.627 108.745 353.866 108.805 353.19 108.926C352.514 109.046 351.935 109.252 351.452 109.541C350.969 109.831 350.595 110.205 350.342 110.664C350.076 111.123 349.955 111.714 349.955 112.414C349.955 113.114 350.088 113.682 350.366 114.152C350.631 114.623 351.006 115.009 351.488 115.299C351.971 115.589 352.551 115.794 353.227 115.927C353.903 116.06 354.663 116.12 355.496 116.12V116.144Z" fill="white"/>
<path d="M380.398 110.071C380.398 109.648 380.217 109.31 379.855 109.081C379.493 108.852 379.07 108.671 378.575 108.562C378.08 108.453 377.573 108.381 377.054 108.369C376.535 108.357 376.101 108.345 375.751 108.345C375.485 108.345 375.123 108.369 374.652 108.405C374.181 108.441 373.711 108.514 373.264 108.622C372.805 108.731 372.419 108.888 372.105 109.093C371.791 109.298 371.647 109.552 371.683 109.878C371.707 110.095 371.852 110.276 372.142 110.409C372.431 110.542 372.817 110.65 373.3 110.735C373.783 110.819 374.338 110.892 374.954 110.94C375.582 111 376.233 111.049 376.922 111.109C377.851 111.206 378.792 111.314 379.746 111.459C380.7 111.592 381.569 111.821 382.353 112.111C383.138 112.413 383.766 112.799 384.261 113.294C384.755 113.789 384.997 114.429 384.997 115.225C384.997 115.853 384.852 116.408 384.55 116.867C384.249 117.325 383.862 117.724 383.379 118.038C382.897 118.352 382.341 118.605 381.726 118.81C381.11 119.015 380.47 119.16 379.819 119.269C379.167 119.378 378.527 119.45 377.911 119.486C377.296 119.522 376.728 119.547 376.221 119.547C375.642 119.547 375.014 119.522 374.338 119.474C373.662 119.426 372.986 119.341 372.31 119.221C371.635 119.1 370.983 118.931 370.367 118.702C369.739 118.484 369.196 118.195 368.713 117.857C368.231 117.519 367.844 117.096 367.555 116.613C367.265 116.13 367.12 115.551 367.12 114.887H371.659C371.659 115.298 371.852 115.624 372.226 115.865C372.6 116.106 373.047 116.287 373.554 116.408C374.061 116.529 374.556 116.601 375.063 116.625C375.558 116.65 375.944 116.662 376.209 116.662C376.415 116.662 376.74 116.65 377.199 116.625C377.658 116.601 378.117 116.541 378.587 116.444C379.058 116.348 379.481 116.203 379.843 115.986C380.205 115.768 380.386 115.491 380.386 115.141C380.386 114.863 380.229 114.634 379.903 114.477C379.577 114.308 379.155 114.175 378.624 114.091C378.092 113.994 377.477 113.922 376.789 113.849C376.101 113.777 375.364 113.716 374.604 113.644C373.711 113.547 372.817 113.427 371.912 113.282C371.007 113.137 370.21 112.908 369.498 112.618C368.786 112.328 368.219 111.93 367.772 111.459C367.325 110.988 367.108 110.373 367.108 109.636C367.108 108.816 367.374 108.14 367.917 107.609C368.46 107.077 369.148 106.643 370.005 106.341C370.862 106.039 371.816 105.822 372.878 105.701C373.94 105.581 374.978 105.52 376.004 105.52C376.909 105.52 377.887 105.581 378.913 105.689C379.939 105.798 380.905 106.027 381.798 106.353C382.691 106.691 383.44 107.15 384.043 107.741C384.647 108.333 384.961 109.117 384.973 110.083H380.434L380.398 110.071Z" fill="white"/>
<path d="M210.78 80.836L234.137 60.6295L211.867 41.3403H225.036L240.764 55.089L256.408 41.3403H269.324L246.969 60.6295L270.567 80.836H257.072L240.68 66.2665L223.95 80.836H210.78Z" fill="white"/>
<path d="M267.247 61.0515C267.247 57.3578 267.972 54.2073 269.444 51.6121C270.905 49.0169 272.933 46.8924 275.528 45.2387C278.123 43.585 281.201 42.3779 284.762 41.6416C288.323 40.8932 292.198 40.519 296.398 40.519C300.599 40.519 304.474 40.9053 308.035 41.6778C311.595 42.4504 314.673 43.6695 317.269 45.3232C319.864 46.9769 321.892 49.1014 323.352 51.6966C324.813 54.2918 325.549 57.4061 325.549 61.0515C325.549 64.6968 324.813 67.8352 323.352 70.4546C321.892 73.074 319.864 75.2105 317.269 76.8763C314.673 78.53 311.595 79.7491 308.035 80.5216C304.474 81.2942 300.599 81.6804 296.398 81.6804C292.198 81.6804 288.323 81.2942 284.762 80.5216C281.201 79.7491 278.123 78.53 275.528 76.8763C272.933 75.2226 270.905 73.086 269.444 70.4546C267.984 67.8352 267.247 64.6968 267.247 61.0515ZM296.398 73.6413C299.271 73.6413 301.866 73.424 304.184 72.9774C306.502 72.5429 308.493 71.8186 310.147 70.8288C311.801 69.839 313.068 68.5353 313.949 66.942C314.83 65.3366 315.277 63.3811 315.277 61.0635C315.277 58.7459 314.83 56.7905 313.949 55.1851C313.068 53.5796 311.801 52.2881 310.147 51.2983C308.493 50.3085 306.502 49.5963 304.184 49.1859C301.866 48.7755 299.271 48.5703 296.398 48.5703C293.525 48.5703 290.93 48.7755 288.613 49.1859C286.295 49.5963 284.303 50.3085 282.65 51.2983C280.996 52.2881 279.729 53.5917 278.847 55.1851C277.966 56.7905 277.52 58.7459 277.52 61.0635C277.52 63.3811 277.966 65.3487 278.847 66.942C279.729 68.5474 280.996 69.839 282.65 70.8288C284.303 71.8186 286.295 72.5429 288.613 72.9774C290.93 73.424 293.525 73.6413 296.398 73.6413Z" fill="white"/>
<path d="M331.839 80.836V41.3404H341.604L341.519 51.4437C342.57 49.7296 343.861 48.2328 345.406 46.9292C346.951 45.6376 348.617 44.5392 350.416 43.658C352.214 42.7768 354.085 42.113 356.053 41.6663C358.008 41.2318 359.903 41.0024 361.726 41.0024C369.403 41.0024 375.197 42.5596 379.12 45.6738C383.043 48.7881 384.998 52.9767 384.998 58.2154V80.824H374.811V59.0483C374.811 56.0185 373.592 53.6164 371.165 51.842C368.739 50.0797 364.901 49.1864 359.65 49.1864C353.964 49.1864 349.583 50.1762 346.529 52.1679C343.463 54.1596 341.93 56.948 341.93 60.533V80.824H331.827L331.839 80.836Z" fill="white"/>
<path fill-rule="evenodd" clip-rule="evenodd" d="M204.153 70.4067V74.8005C193.338 82.0188 166.625 84.6623 158.816 71.819C151.066 59.0361 158.635 48.8242 170.5 45.7823C170.995 45.6254 170.838 45.7823 170.874 45.2271C170.379 45.1305 170.102 44.9494 169.619 44.7925C163.318 42.6077 158.647 37.9967 158.647 30.8628C158.647 22.4978 166.541 17.6815 173.952 16.1968C183.911 14.2051 192.698 15.1467 202.295 17.5487L202.174 30.5852H198.854L196.766 26.288C195.994 24.755 195.752 23.3065 194.183 22.6306C190.031 20.7596 186.772 20.482 182.354 20.482C179.614 20.482 176.113 21.5321 173.928 23.1255C168.919 26.8433 169.196 34.5927 171.78 38.4916C172.914 40.2177 176.113 43.344 178.237 43.2595L195.269 43.3561V48.3051H177.284C176.608 48.1482 175.775 48.6431 175.015 48.9449C166.782 52.2643 164.96 64.3713 171.755 70.0929C180.603 77.5647 194.436 72.676 204.19 70.3947L204.153 70.4067Z" fill="white"/>
</svg>
