<svg width="125" height="42" viewBox="0 0 125 42" fill="none" xmlns="http://www.w3.org/2000/svg">
<path d="M121.249 9.15143C121.672 8.73924 122.194 8.53125 122.81 8.53125C123.427 8.53125 123.945 8.73924 124.372 9.15143C124.792 9.56362 125 10.0666 125 10.6565C125 11.2464 124.792 11.7494 124.372 12.1616C123.949 12.5738 123.427 12.7817 122.81 12.7817C122.194 12.7817 121.676 12.5738 121.249 12.1616C120.825 11.7494 120.613 11.2464 120.613 10.6565C120.613 10.0666 120.825 9.56362 121.249 9.15143ZM122.81 12.362C123.306 12.362 123.718 12.1994 124.047 11.8704C124.384 11.5376 124.55 11.133 124.55 10.6603C124.55 10.1876 124.384 9.77539 124.047 9.43883C123.718 9.10983 123.306 8.94722 122.81 8.94722C122.315 8.94722 121.892 9.10983 121.563 9.43883C121.234 9.76783 121.06 10.18 121.06 10.6603C121.06 11.1405 121.226 11.5376 121.563 11.8704C121.899 12.2032 122.308 12.362 122.81 12.362ZM123.661 11.0876L123.688 11.4204C123.695 11.5527 123.729 11.67 123.797 11.7721H123.393C123.34 11.7002 123.31 11.583 123.302 11.4204L123.283 11.1859C123.272 11.0611 123.242 10.9741 123.196 10.925C123.151 10.8758 123.075 10.8531 122.969 10.8531H122.349V11.7683H121.956V9.49177H122.924C123.174 9.49177 123.37 9.54849 123.51 9.65816C123.65 9.76783 123.722 9.92665 123.722 10.1309C123.722 10.3956 123.612 10.5733 123.389 10.6678C123.552 10.7283 123.639 10.8683 123.658 11.0876H123.661ZM122.353 10.4939H122.962C123.2 10.4939 123.321 10.388 123.321 10.1725C123.321 9.9569 123.189 9.85102 122.928 9.85102H122.353V10.4977V10.4939Z" fill="#09A99D"/>
<path d="M10.4334 29.0048C10.4334 29.1674 10.4183 29.3224 10.3729 29.4699C9.86993 29.417 9.38589 29.3829 8.87537 29.3678H8.86781C8.47831 29.3451 8.07746 29.3376 7.68039 29.3376C7.22282 29.3376 6.77282 29.3527 6.32281 29.3754C6.0581 29.3829 5.80095 29.4056 5.53246 29.4283C4.91228 29.4737 4.29967 29.5455 3.69839 29.6363C3.90638 29.3111 4.12571 28.9934 4.36017 28.6909C5.01438 28.6115 5.67238 28.5586 6.34172 28.5359C6.72366 28.5132 7.10938 28.5056 7.49132 28.5056C8.47074 28.5056 9.43883 28.5586 10.3956 28.6607C10.4183 28.7703 10.4258 28.8876 10.4258 29.0086L10.4334 29.0048Z" fill="#162D3E"/>
<path d="M9.27628 30.9144C9.23847 31.2093 9.13636 31.4816 8.98132 31.7161C8.554 31.6934 8.11912 31.6858 7.68424 31.6858C6.95439 31.6858 6.22455 31.7161 5.50983 31.7728C4.52284 31.8447 3.54719 31.9884 2.59045 32.1699C2.67743 31.8522 2.78331 31.5421 2.90054 31.2396C3.65308 31.1148 4.41317 31.0127 5.18462 30.9522C5.92959 30.8841 6.67456 30.8501 7.43465 30.8501H7.50272C8.0624 30.8501 8.62207 30.8652 9.17418 30.9106H9.18174C9.21199 30.903 9.24981 30.9106 9.27628 30.9106V30.9144Z" fill="#12A89D"/>
<path d="M8.06997 33.4819C8.06997 33.5916 8.07754 33.7013 8.10023 33.8147C7.96787 33.8072 7.82795 33.8072 7.68803 33.8072C5.81615 33.8072 3.98209 34 2.21231 34.3593C2.235 34.0567 2.26525 33.7618 2.30685 33.4744C3.98587 33.1416 5.7254 32.9714 7.50274 32.9714C7.71829 32.9714 7.92249 32.9714 8.13048 32.979C8.09266 33.1416 8.06997 33.3118 8.06997 33.4819Z" fill="#12A89D"/>
<path d="M20.7684 22.9465C20.7684 23.4986 20.5528 24.0091 20.1936 24.3835C19.1764 24.183 18.1289 24.0809 17.0549 24.0809H16.9755C15.8486 24.0885 14.7481 24.2057 13.6893 24.4288C13.3716 24.0658 13.1788 23.5969 13.1788 23.0713C13.1788 22.7612 13.2468 22.4738 13.3641 22.2091H13.3716C14.4985 21.9444 15.6784 21.8044 16.8809 21.7969C16.9188 21.7893 16.9528 21.7893 16.9906 21.7893H17.0587C18.2839 21.7893 19.4751 21.9217 20.6247 22.1788C20.7192 22.4133 20.7722 22.6742 20.7722 22.9465H20.7684Z" fill="#162D3E"/>
<path d="M23.7181 36.753C23.7181 36.8325 23.7106 36.9232 23.703 37.0026C22.5836 37.5056 21.4265 37.9329 20.2391 38.2695C17.8567 38.9615 15.3457 39.3321 12.744 39.3321C10.5545 39.3321 8.43299 39.0749 6.3985 38.572C5.10142 38.2619 3.84972 37.8573 2.63205 37.3694C2.63961 36.6018 3.05937 35.94 3.67955 35.5845C4.60981 35.9249 5.56655 36.2047 6.54598 36.4316C8.53509 36.9043 10.6074 37.1539 12.744 37.1539C15.1264 37.1539 17.4331 36.8438 19.6378 36.2614C20.7723 35.9589 21.8878 35.5921 22.9618 35.1497H22.9694C23.4269 35.524 23.7219 36.0988 23.7219 36.7493L23.7181 36.753Z" fill="#162D3E"/>
<path d="M22.9164 4.21644C22.9164 4.85175 22.629 5.41898 22.179 5.80092C21.1693 5.57403 20.1369 5.41142 19.0894 5.30554H19.0819C18.1819 5.211 17.2743 5.16562 16.3629 5.16562C15.1188 5.16562 13.8936 5.24503 12.691 5.4152C11.7343 5.53999 10.7964 5.72529 9.8813 5.95219C9.30651 5.58537 8.93213 4.9425 8.93213 4.21266C8.93213 4.15215 8.93213 4.08787 8.93969 4.02736C10.199 3.66433 11.4885 3.39206 12.8158 3.21811H12.8234C13.9805 3.07062 15.1604 2.99121 16.3629 2.99121C17.2781 2.99121 18.1819 3.03659 19.0819 3.13113C20.3714 3.25592 21.6307 3.47903 22.8635 3.78534H22.871C22.9013 3.9177 22.9164 4.06518 22.9164 4.21266V4.21644Z" fill="#162D3E"/>
<path d="M11.1708 11.9007C10.1989 12.086 9.20439 12.1806 8.17958 12.1806C8.10773 12.1806 8.02453 12.1806 7.95268 12.173C7.84302 12.1806 7.73335 12.173 7.6199 12.1654C6.493 12.1352 5.39256 11.9801 4.34128 11.723C4.63624 11.428 5.01818 11.22 5.43794 11.1482H5.4455C5.85013 11.22 6.26232 11.273 6.68207 11.3032C7.17746 11.3562 7.67663 11.3751 8.17958 11.3751C8.3195 11.3751 8.46698 11.3751 8.6069 11.3675C9.31405 11.3524 10.0136 11.2881 10.6943 11.1822C10.8645 11.4167 11.0195 11.6549 11.1746 11.8969L11.1708 11.9007Z" fill="#12A89D"/>
<path d="M8.17946 9.9039C7.44962 9.9039 6.7349 9.85852 6.03531 9.75642C6.13741 9.5144 6.19035 9.25347 6.19792 8.97363C6.84835 9.06061 7.51012 9.09843 8.17946 9.09843C8.43661 9.09843 8.70132 9.09086 8.96225 9.07574C9.20427 9.31776 9.43495 9.57112 9.64671 9.82827C9.15889 9.88121 8.67485 9.90012 8.17946 9.90012V9.9039Z" fill="#12A89D"/>
<path d="M9.78662 18.1364C9.55973 18.4314 9.30636 18.7188 9.04922 18.9986C8.76182 19.0137 8.46685 19.0213 8.17945 19.0213C7.7597 19.0213 7.34751 19.0062 6.93531 18.9684C6.58741 18.681 6.25085 18.3784 5.9332 18.0608C6.66304 18.1629 7.41557 18.2158 8.18323 18.2158C8.72778 18.2158 9.26098 18.1856 9.7904 18.1364H9.78662Z" fill="#162D3E"/>
<path d="M11.4808 15.5801C11.3182 15.8902 11.1404 16.1927 10.9589 16.4877C10.0513 16.6427 9.12485 16.7222 8.17945 16.7222C7.16977 16.7222 6.17522 16.6276 5.20713 16.4499C4.91973 16.3969 4.6399 16.3402 4.36006 16.2721C4.11804 15.9545 3.8798 15.6217 3.66803 15.2852C4.29577 15.4705 4.94242 15.6104 5.60042 15.7125C6.43993 15.8448 7.30213 15.9129 8.17945 15.9129C9.31392 15.9129 10.4144 15.8032 11.4808 15.5801Z" fill="#162D3E"/>
<path d="M11.6586 14.0673C10.5392 14.3094 9.37451 14.4342 8.17953 14.4342C7.94507 14.4342 7.70683 14.4266 7.47237 14.419C7.11691 14.4039 6.76522 14.3736 6.41731 14.3396C5.53999 14.2526 4.68535 14.09 3.86097 13.8594H3.85341C3.72861 13.8291 3.60382 13.7913 3.48659 13.7573C3.47903 13.572 3.47147 13.3829 3.47147 13.19C3.47147 13.1106 3.47147 13.0198 3.47903 12.9404C3.56601 12.9707 3.65676 13.0009 3.7513 13.0198C4.77611 13.3072 5.83117 13.5001 6.92026 13.572C7.22279 13.6022 7.52532 13.6098 7.83541 13.6173C7.95263 13.6249 8.0623 13.6249 8.18331 13.6249C9.33291 13.6249 10.4523 13.5077 11.5376 13.2694C11.5981 13.5266 11.6321 13.7988 11.6624 14.0673H11.6586Z" fill="#12A89D"/>
<path d="M10.0514 27.3068C9.46905 27.269 8.87913 27.2463 8.28164 27.2463C7.61986 27.2463 6.96943 27.269 6.319 27.3182C6.64422 27.0005 6.97321 26.6829 7.31355 26.3804C7.60095 26.3728 7.89592 26.3652 8.19088 26.3652C8.7203 26.3652 9.24594 26.3804 9.7678 26.4182C9.86234 26.7131 9.96066 27.0081 10.0476 27.3031L10.0514 27.3068Z" fill="#162D3E"/>
<path d="M5.57777 7.80144V7.87329H5.57021C5.55508 9.01533 5.07482 10.0401 4.31094 10.7851C3.5811 11.4355 3.07815 12.3318 2.95335 13.349C2.76806 12.8763 2.66595 12.3696 2.66595 11.8288C2.66595 11.7986 2.66595 11.7759 2.67352 11.7494C2.68864 10.6376 3.14621 9.64307 3.87606 8.90566C3.98572 8.796 4.09539 8.69768 4.2164 8.60314C4.7912 8.0359 5.19583 7.29093 5.35844 6.45898C5.49836 6.87874 5.57777 7.32875 5.57777 7.80144Z" fill="#12A89D"/>
<path d="M11.9234 30.5097V30.5815H11.9158C11.9007 31.7236 11.4204 32.7484 10.6566 33.4934C9.92671 34.1438 9.42376 35.04 9.29897 36.0573C9.11367 35.5846 9.01157 35.0778 9.01157 34.5371C9.01157 34.5068 9.01157 34.4841 9.01913 34.4577C9.03426 33.3459 9.49183 32.3513 10.2217 31.6139C10.3313 31.5043 10.441 31.4059 10.562 31.3114C11.1368 30.7442 11.5414 29.9992 11.704 29.1672C11.844 29.587 11.9234 30.037 11.9234 30.5097Z" fill="#12A89D"/>
<path d="M8.01696 20.3335C7.1472 20.9612 6.17533 21.4528 5.12783 21.7856C4.00849 20.8061 3.10847 19.5885 2.49586 18.212C1.93618 16.93 1.61853 15.5157 1.61853 14.0258C1.61853 13.0539 1.75089 12.1161 2.00047 11.2236C2.07988 14.1203 3.35049 16.7145 5.33204 18.5523C6.12995 19.2822 7.02619 19.8872 8.01696 20.3372V20.3335Z" fill="#162D3E"/>
<path d="M8.01696 20.3335C7.1472 20.9612 6.17533 21.4528 5.12783 21.7856C4.00849 20.8061 3.10847 19.5885 2.49586 18.212C1.93618 16.93 1.61853 15.5157 1.61853 14.0258C1.61853 13.0539 1.75089 12.1161 2.00047 11.2236C2.07988 14.1203 3.35049 16.7145 5.33204 18.5523C6.12995 19.2822 7.02619 19.8872 8.01696 20.3372V20.3335Z" fill="#162D3E"/>
<path d="M12.7099 12.2863C12.7099 12.9859 12.5927 13.6591 12.3771 14.283C12.2296 14.7255 12.0216 15.1528 11.7796 15.5423C11.9195 15.0318 11.9952 14.5023 11.9952 13.9502C11.9952 11.7078 10.8078 9.74134 9.02286 8.64847C8.96235 8.61065 8.90563 8.57662 8.83756 8.54636C8.77706 8.50855 8.72033 8.47451 8.65983 8.44426C7.69552 7.87702 6.89761 7.0602 6.36819 6.06943C5.88037 5.18454 5.60809 4.17486 5.60809 3.09711C5.60809 2.94963 5.61566 2.80215 5.62322 2.65467C5.69129 1.69036 5.97869 0.790349 6.43248 0C6.35306 0.310089 6.30769 0.627742 6.285 0.949176C6.27743 1.09666 6.26987 1.24414 6.26987 1.39162C6.26987 3.69082 7.51401 5.69505 9.37454 6.7728C9.38967 6.78037 9.4048 6.78793 9.41992 6.79549C9.52959 6.856 9.63547 6.91272 9.73758 6.98079C10.6678 7.54803 11.4317 8.3535 11.9498 9.31024C12.4376 10.1876 12.7099 11.2048 12.7099 12.2826V12.2863Z" fill="#162D3E"/>
<path d="M12.9746 28.4904C12.9746 29.243 12.8951 29.9653 12.7401 30.6649C12.3582 28.4602 11.288 26.4938 9.74887 24.9963C10.456 24.569 11.0989 24.0509 11.6737 23.4761C11.8287 23.7408 11.9687 24.0206 12.0934 24.308C12.6607 25.5824 12.9783 26.9967 12.9783 28.4867L12.9746 28.4904Z" fill="#162D3E"/>
<path d="M14.2149 15.6972C14.2149 18.1137 13.3906 20.3335 11.9952 22.0957C10.9401 23.4457 9.54848 24.5272 7.94887 25.2155C7.93375 25.223 7.91862 25.2306 7.91106 25.2306C7.74845 25.3024 7.58584 25.3705 7.41567 25.431C7.40055 25.4386 7.38542 25.4386 7.37029 25.4461C3.69082 27.0382 1.11178 30.7025 1.11178 34.9644C1.11178 35.8946 1.22901 36.7833 1.45969 37.6417C0.529421 36.0875 0 34.2648 0 32.3286C0 29.9122 0.824384 27.6924 2.21222 25.9302C3.26728 24.5877 4.64378 23.5138 6.22826 22.8255C6.4854 22.7385 6.73877 22.6402 6.98079 22.5305C10.6603 20.9461 13.2317 17.2817 13.2317 13.0199C13.2317 12.2825 13.1599 11.5602 13.0048 10.8682C13.7801 12.3052 14.2149 13.9577 14.2149 15.7048V15.6972Z" fill="#12A89D"/>
<path d="M35.9477 2.04199C36.1028 5.32818 36.2049 8.61437 36.2578 11.9006C36.3221 15.1868 36.3372 18.4729 36.3448 21.7591C36.3372 25.0453 36.3221 28.3315 36.2578 31.6177C36.2049 34.9039 36.1028 38.1901 35.9477 41.4763C35.7927 38.1901 35.6868 34.9039 35.6376 31.6177C35.5733 28.3315 35.5582 25.0453 35.5507 21.7591C35.5582 18.4729 35.5771 15.1868 35.6376 11.9006C35.6906 8.61437 35.7927 5.32818 35.9477 2.04199Z" fill="black"/>
<path d="M51.4105 37.1955V32.7711H48.7672V31.6555H55.5929V32.7711H52.9496V37.1955H51.4143H51.4105Z" fill="#12A89D"/>
<path d="M56.2205 37.1956V31.1035H57.7142V33.9473C58.0054 33.5918 58.3193 33.3346 58.6596 33.1758C59 33.017 59.3517 32.9338 59.7109 32.9262C60.1647 32.9073 60.558 32.9451 60.8832 33.0397C61.2122 33.1342 61.4807 33.2666 61.6887 33.4367C61.8967 33.6069 62.0517 33.8111 62.15 34.0418C62.2483 34.2763 62.2975 34.5183 62.2975 34.7754V37.1919H60.8038V34.9229C60.8038 34.6128 60.6903 34.3746 60.4672 34.1968C60.2441 34.0229 59.8849 33.9359 59.3895 33.9359C58.826 33.9359 58.4025 34.038 58.1226 34.246C57.8428 34.454 57.7029 34.73 57.7029 35.078V37.1881H56.2092L56.2205 37.1956Z" fill="#12A89D"/>
<path d="M68.9077 35.7965C68.7905 36.3183 68.4728 36.6965 67.9548 36.9309C67.4367 37.1654 66.7371 37.2788 65.8522 37.2788C65.3039 37.2788 64.835 37.2145 64.4417 37.0898C64.0484 36.965 63.727 36.7986 63.4774 36.5868C63.2278 36.3788 63.0425 36.1368 62.929 35.8683C62.8156 35.5998 62.7551 35.3124 62.7551 35.0175C62.7551 34.7225 62.8118 34.454 62.9215 34.1968C63.0312 33.9397 63.2127 33.7128 63.4622 33.5162C63.7118 33.3195 64.0408 33.1645 64.4455 33.051C64.8501 32.9376 65.3455 32.8809 65.9354 32.8809C66.4119 32.8809 66.843 32.93 67.2325 33.0283C67.6182 33.1267 67.9472 33.2779 68.2157 33.4821C68.4842 33.6863 68.6846 33.9435 68.8207 34.2498C68.9569 34.5561 69.0098 34.9229 68.9834 35.3502H64.1997C64.2186 35.4939 64.2715 35.6301 64.366 35.7549C64.4606 35.8796 64.5816 35.9893 64.7291 36.0839C64.8766 36.1784 65.0505 36.2502 65.2509 36.3032C65.4514 36.3561 65.6669 36.3826 65.9014 36.3826C66.2228 36.3826 66.4799 36.3637 66.6728 36.3221C66.8695 36.2805 67.0207 36.2313 67.1342 36.1746C67.2476 36.1179 67.327 36.0536 67.3686 35.9818C67.4102 35.9099 67.4443 35.8494 67.4594 35.8002H68.9077V35.7965ZM67.4669 34.6166C67.4442 34.5221 67.3989 34.4275 67.3308 34.3292C67.2627 34.2309 67.1682 34.1401 67.0472 34.0645C66.9262 33.9851 66.7711 33.9246 66.5821 33.8754C66.393 33.83 66.1585 33.8073 65.8787 33.8073C65.3833 33.8073 65.0051 33.8868 64.7404 34.0494C64.4757 34.212 64.3055 34.4011 64.2299 34.6204H67.4669V34.6166Z" fill="#12A89D"/>
<path d="M69.596 32.9603H71.0708L71.0784 34.0759C71.3809 33.3196 71.9708 32.9414 72.8482 32.9414H73.7557V34.0948L72.7423 34.1024C72.5078 34.1024 72.2923 34.1326 72.0918 34.1931C71.8914 34.2536 71.7175 34.3368 71.57 34.4427C71.4225 34.5486 71.3053 34.6696 71.2145 34.8095C71.1275 34.9494 71.0822 35.0969 71.0822 35.2557V37.1919H69.5884V32.9603H69.596Z" fill="#12A89D"/>
<path d="M78.252 34.1929C78.2293 34.0871 78.1537 34.0114 78.0289 33.9585C77.9041 33.9055 77.7642 33.8715 77.613 33.8488C77.4617 33.8299 77.3104 33.8186 77.1554 33.8148C77.0003 33.8148 76.8793 33.811 76.7923 33.811C76.7167 33.811 76.6033 33.8186 76.4558 33.8299C76.3083 33.8413 76.1608 33.8639 76.0133 33.898C75.8696 33.932 75.7411 33.985 75.6352 34.053C75.5293 34.1249 75.4726 34.2156 75.4726 34.3329H74.0167C74.0167 34.1173 74.0658 33.932 74.1604 33.7732C74.2549 33.6144 74.3835 33.482 74.5385 33.3761C74.6936 33.2702 74.8751 33.1833 75.0755 33.119C75.2759 33.0547 75.4801 33.0055 75.6919 32.9715C75.8999 32.9375 76.1079 32.9148 76.3083 32.9034C76.5087 32.8921 76.6865 32.8845 76.8453 32.8845C76.9625 32.8845 77.1138 32.8883 77.3029 32.8959C77.4919 32.9034 77.6924 32.9261 77.9041 32.9564C78.1159 32.9866 78.3315 33.032 78.5508 33.0849C78.7701 33.1379 78.9668 33.2097 79.1407 33.3005C79.3147 33.3913 79.4584 33.5009 79.568 33.6333C79.6777 33.7656 79.7344 33.9207 79.7344 34.0984V36.1216C79.7344 36.1669 79.7533 36.201 79.7949 36.2237C79.8365 36.2426 79.8819 36.2539 79.9386 36.2577C79.9953 36.2577 80.0483 36.2577 80.105 36.2577C80.1617 36.2577 80.2071 36.2501 80.2411 36.2463V37.1993C80.1126 37.1993 79.9764 37.1993 79.8327 37.2069C79.689 37.2106 79.5378 37.2144 79.3865 37.2144C79.2693 37.2144 79.1483 37.2031 79.0159 37.1842C78.8836 37.1653 78.7663 37.1274 78.6529 37.0745C78.5432 37.0216 78.4487 36.9497 78.3731 36.859C78.2974 36.7682 78.2596 36.6548 78.2596 36.5148C78.1499 36.6585 78.01 36.7833 77.8436 36.8854C77.6772 36.9875 77.4995 37.0707 77.3066 37.135C77.1138 37.1993 76.9171 37.2447 76.7167 37.2749C76.5163 37.3052 76.331 37.3203 76.1608 37.3203C75.9566 37.3203 75.7184 37.3052 75.4461 37.2711C75.1738 37.2371 74.9091 37.1766 74.6595 37.0783C74.41 36.9837 74.1982 36.8476 74.028 36.6737C73.8578 36.4997 73.7709 36.2728 73.7709 35.993C73.7709 35.7585 73.8389 35.5657 73.9713 35.4068C74.1037 35.248 74.2776 35.1194 74.4894 35.0135C74.7011 34.9077 74.9432 34.8283 75.2079 34.7677C75.4764 34.711 75.7449 34.6656 76.0133 34.6316C76.2856 34.6014 76.5428 34.5787 76.7848 34.5673C77.0306 34.556 77.2348 34.5409 77.405 34.5257C77.4995 34.5144 77.5978 34.503 77.6999 34.4917C77.802 34.4803 77.9004 34.4614 77.9836 34.435C78.0667 34.4085 78.1348 34.3782 78.1878 34.3404C78.2407 34.3026 78.2558 34.2535 78.2407 34.1967L78.252 34.1929ZM78.2709 35.0551C78.1953 35.1005 78.097 35.1383 77.976 35.1648C77.855 35.1913 77.7188 35.2178 77.5676 35.248C77.3445 35.282 77.1062 35.3161 76.8415 35.3501C76.5806 35.3804 76.3348 35.4182 76.1079 35.4636C75.881 35.5089 75.6919 35.5657 75.5406 35.6337C75.3894 35.7056 75.3138 35.8001 75.3138 35.9211C75.3138 36.0308 75.3629 36.1216 75.4575 36.1896C75.552 36.2577 75.6654 36.3144 75.7978 36.356C75.9301 36.3976 76.0625 36.4241 76.1949 36.4354C76.3272 36.4468 76.4331 36.4543 76.5087 36.4543C76.6184 36.4543 76.7734 36.4392 76.9701 36.409C77.1667 36.3787 77.3634 36.3333 77.5562 36.2652C77.7491 36.1972 77.9155 36.114 78.0592 36.0081C78.2029 35.9022 78.2747 35.7736 78.2747 35.6262V35.0589L78.2709 35.0551Z" fill="#12A89D"/>
<path d="M82.2605 36.2426V38.9464H80.7668V32.9677H82.2151V33.9283C82.2908 33.8072 82.4042 33.6825 82.5517 33.5614C82.6992 33.4404 82.8731 33.3308 83.0698 33.2324C83.2664 33.1379 83.482 33.0585 83.7126 33.0018C83.9433 32.945 84.1778 32.9148 84.416 32.9148C84.8395 32.9148 85.2366 32.964 85.5996 33.0623C85.9627 33.1606 86.2765 33.3043 86.5412 33.4934C86.806 33.6825 87.0139 33.9094 87.1652 34.1778C87.3165 34.4463 87.3921 34.7451 87.3921 35.0779C87.3921 35.4106 87.3165 35.7094 87.1652 35.9779C87.0139 36.2464 86.806 36.4733 86.5412 36.6586C86.2765 36.8439 85.9627 36.9876 85.5996 37.0897C85.2366 37.1918 84.8433 37.2409 84.4273 37.2409C84.1929 37.2409 83.966 37.2107 83.7429 37.1539C83.5198 37.0972 83.3118 37.0178 83.1189 36.9233C82.9261 36.8287 82.7559 36.7191 82.6084 36.6018C82.4609 36.4846 82.3437 36.3636 82.2643 36.2388L82.2605 36.2426ZM84.0757 33.8942C83.8147 33.8942 83.5727 33.9207 83.3496 33.9774C83.1265 34.0341 82.9374 34.1136 82.7748 34.2194C82.6122 34.3253 82.4836 34.4463 82.3891 34.59C82.2945 34.7337 82.2492 34.8926 82.2492 35.0665C82.2492 35.2405 82.2945 35.3993 82.3891 35.543C82.4836 35.6867 82.6084 35.8077 82.7672 35.9136C82.9261 36.0195 83.1189 36.0989 83.342 36.1518C83.5652 36.2086 83.8072 36.235 84.0719 36.235C84.3366 36.235 84.5937 36.2086 84.8131 36.1518C85.0324 36.0951 85.2253 36.0157 85.3879 35.9136C85.5505 35.8077 85.6753 35.6867 85.7622 35.543C85.8492 35.3993 85.8946 35.2405 85.8946 35.0665C85.8946 34.8926 85.8492 34.7262 85.7622 34.5825C85.6753 34.4388 85.5505 34.3178 85.3879 34.2157C85.2253 34.1136 85.0324 34.0341 84.8131 33.9812C84.5937 33.9245 84.3442 33.898 84.0719 33.898L84.0757 33.8942Z" fill="#12A89D"/>
<path d="M94.0401 35.7965C93.9228 36.3183 93.6052 36.6965 93.0871 36.9309C92.569 37.1654 91.8695 37.2788 90.9846 37.2788C90.4362 37.2788 89.9673 37.2145 89.574 37.0898C89.1808 36.965 88.8593 36.7986 88.6097 36.5868C88.3601 36.3788 88.1749 36.1368 88.0614 35.8683C87.948 35.5998 87.8875 35.3124 87.8875 35.0175C87.8875 34.7225 87.9442 34.454 88.0538 34.1968C88.1635 33.9397 88.345 33.7128 88.5946 33.5162C88.8442 33.3195 89.1732 33.1645 89.5778 33.051C89.9824 32.9376 90.4778 32.8809 91.0678 32.8809C91.5442 32.8809 91.9753 32.93 92.3648 33.0283C92.7506 33.1267 93.0796 33.2779 93.348 33.4821C93.6165 33.6863 93.817 33.9435 93.9531 34.2498C94.0892 34.5599 94.1422 34.9229 94.1157 35.3502H89.332C89.3509 35.4939 89.4039 35.6301 89.4984 35.7549C89.5929 35.8796 89.714 35.9893 89.8614 36.0839C90.0089 36.1784 90.1829 36.2502 90.3833 36.3032C90.5837 36.3561 90.7993 36.3826 91.0337 36.3826C91.3552 36.3826 91.6123 36.3637 91.8052 36.3221C92.0018 36.2805 92.1531 36.2313 92.2665 36.1746C92.38 36.1179 92.4594 36.0536 92.501 35.9818C92.5426 35.9099 92.5766 35.8494 92.5917 35.8002H94.0401V35.7965ZM92.5993 34.6166C92.5766 34.5221 92.5312 34.4275 92.4632 34.3292C92.3951 34.2309 92.3006 34.1401 92.1795 34.0645C92.0585 33.9851 91.9035 33.9246 91.7144 33.8754C91.5253 33.83 91.2909 33.8073 91.011 33.8073C90.5157 33.8073 90.1375 33.8868 89.8728 34.0494C89.6081 34.212 89.4379 34.4011 89.3623 34.6204H92.5993V34.6166Z" fill="#12A89D"/>
<path d="M99.2511 37.2033V36.2503C99.1415 36.4469 99.0053 36.6133 98.8503 36.7419C98.6953 36.8743 98.5175 36.9764 98.3284 37.052C98.1356 37.1276 97.9314 37.1806 97.7196 37.2108C97.504 37.2411 97.2809 37.2524 97.0465 37.2524C96.6267 37.2524 96.2675 37.207 95.9649 37.1163C95.6624 37.0255 95.4128 36.8969 95.22 36.7306C95.0233 36.5642 94.8834 36.3675 94.7927 36.1369C94.7019 35.9062 94.6565 35.6528 94.6565 35.373V32.9565H96.1389V35.2709C96.1389 35.4297 96.1578 35.5734 96.1956 35.702C96.2334 35.8343 96.3015 35.944 96.4036 36.0385C96.5057 36.1331 96.6494 36.2011 96.8309 36.2541C97.0124 36.3032 97.2545 36.3297 97.5494 36.3297C98.1091 36.3297 98.5213 36.22 98.7898 35.9969C99.0583 35.7738 99.1906 35.4864 99.1906 35.1234V32.9603H100.684V37.1919L99.2549 37.1995L99.2511 37.2033Z" fill="#12A89D"/>
<path d="M103.657 35.8344C103.657 35.963 103.71 36.0499 103.819 36.0991C103.929 36.1483 104.095 36.1747 104.33 36.1747C104.436 36.1747 104.526 36.1747 104.61 36.1709C104.693 36.1672 104.772 36.1672 104.855 36.1634C104.939 36.1634 105.022 36.1558 105.109 36.152C105.196 36.1483 105.294 36.1407 105.404 36.1331V37.1201C105.014 37.1882 104.617 37.226 104.216 37.226C103.842 37.226 103.528 37.2033 103.271 37.1579C103.014 37.1126 102.802 37.0369 102.639 36.9348C102.477 36.8327 102.36 36.7004 102.284 36.5415C102.208 36.3827 102.174 36.1861 102.174 35.9516V33.902H101.161V32.968H102.174V31.6331H103.657V32.968H105.479V33.902H103.657V35.8382V35.8344Z" fill="#12A89D"/>
<path d="M106.013 31.2319H107.54V32.3399H106.013V31.2319ZM106.031 37.1917V32.9601H107.525V37.1917H106.031Z" fill="#12A89D"/>
<path d="M111.371 36.2163C111.568 36.2163 111.757 36.205 111.938 36.1823C112.12 36.1596 112.282 36.118 112.426 36.0651C112.57 36.0083 112.698 35.9365 112.8 35.8419C112.903 35.7474 112.982 35.634 113.035 35.494L114.544 35.4865C114.479 35.8193 114.351 36.0953 114.154 36.3184C113.958 36.5415 113.719 36.7231 113.436 36.8592C113.152 36.9953 112.831 37.0937 112.471 37.1542C112.112 37.2147 111.742 37.2449 111.36 37.2449C110.906 37.2449 110.482 37.2071 110.085 37.1315C109.688 37.0558 109.348 36.931 109.06 36.7609C108.773 36.5907 108.546 36.3638 108.38 36.084C108.213 35.8041 108.13 35.46 108.13 35.0554C108.13 34.6734 108.206 34.3407 108.357 34.0646C108.508 33.7886 108.724 33.5617 109.004 33.3877C109.284 33.2138 109.624 33.0852 110.021 32.9982C110.418 32.915 110.864 32.8696 111.36 32.8696C113.25 32.8696 114.321 33.486 114.57 34.7188H113.05C112.963 34.4087 112.77 34.197 112.475 34.0759C112.18 33.9549 111.806 33.8982 111.36 33.8982C111.099 33.8982 110.861 33.9171 110.649 33.9549C110.437 33.9928 110.255 34.057 110.104 34.1478C109.953 34.2386 109.836 34.3558 109.756 34.4995C109.673 34.6432 109.635 34.8285 109.635 35.0478C109.635 35.2671 109.677 35.4449 109.764 35.5924C109.847 35.7398 109.964 35.8609 110.116 35.9516C110.267 36.0424 110.448 36.1067 110.66 36.1483C110.872 36.1899 111.11 36.2088 111.371 36.2088V36.2163Z" fill="#12A89D"/>
<path d="M119.172 34.3141C119.172 34.1817 119.116 34.0758 119.002 34.004C118.889 33.9321 118.756 33.8754 118.601 33.8414C118.446 33.8074 118.288 33.7847 118.125 33.7809C117.962 33.7771 117.826 33.7733 117.717 33.7733C117.633 33.7733 117.52 33.7809 117.372 33.7922C117.225 33.8036 117.077 33.8263 116.938 33.8603C116.794 33.8943 116.673 33.9435 116.574 34.0078C116.476 34.0721 116.431 34.1515 116.442 34.2536C116.45 34.3216 116.495 34.3784 116.586 34.42C116.677 34.4616 116.798 34.4956 116.949 34.5221C117.1 34.5485 117.274 34.5712 117.467 34.5864C117.664 34.6053 117.868 34.6204 118.083 34.6393C118.375 34.6696 118.669 34.7036 118.968 34.749C119.267 34.7906 119.539 34.8624 119.785 34.9532C120.031 35.0477 120.227 35.1687 120.383 35.3238C120.538 35.4788 120.613 35.6792 120.613 35.9288C120.613 36.1255 120.568 36.2994 120.473 36.4431C120.379 36.5868 120.258 36.7116 120.106 36.8099C119.955 36.9082 119.781 36.9877 119.588 37.0519C119.396 37.1162 119.195 37.1616 118.991 37.1956C118.787 37.2297 118.586 37.2524 118.393 37.2637C118.201 37.2751 118.023 37.2826 117.864 37.2826C117.682 37.2826 117.486 37.2751 117.274 37.2599C117.062 37.2448 116.851 37.2183 116.639 37.1805C116.427 37.1427 116.223 37.0898 116.03 37.0179C115.833 36.9498 115.663 36.8591 115.512 36.7532C115.361 36.6473 115.24 36.515 115.149 36.3637C115.058 36.2124 115.013 36.0309 115.013 35.8229H116.435C116.435 35.9515 116.495 36.0536 116.612 36.1292C116.73 36.2049 116.869 36.2616 117.028 36.2994C117.187 36.3372 117.342 36.3599 117.501 36.3675C117.656 36.375 117.777 36.3788 117.86 36.3788C117.925 36.3788 118.027 36.375 118.17 36.3675C118.314 36.3599 118.458 36.341 118.605 36.3108C118.753 36.2805 118.885 36.2351 118.998 36.1671C119.112 36.099 119.169 36.012 119.169 35.9023C119.169 35.8154 119.119 35.7435 119.017 35.6944C118.915 35.6414 118.783 35.5998 118.617 35.5733C118.45 35.5431 118.257 35.5204 118.042 35.4977C117.826 35.475 117.596 35.4561 117.357 35.4334C117.077 35.4032 116.798 35.3654 116.514 35.32C116.23 35.2746 115.981 35.2028 115.758 35.112C115.535 35.0212 115.357 34.8964 115.217 34.749C115.077 34.6015 115.009 34.4086 115.009 34.1779C115.009 33.9208 115.092 33.709 115.262 33.5426C115.432 33.3763 115.648 33.2401 115.916 33.1456C116.185 33.051 116.484 32.983 116.817 32.9452C117.149 32.9073 117.474 32.8884 117.796 32.8884C118.08 32.8884 118.386 32.9073 118.707 32.9414C119.029 32.9754 119.331 33.0473 119.611 33.1494C119.891 33.2552 120.125 33.3989 120.314 33.5842C120.504 33.7695 120.602 34.0153 120.606 34.3179H119.184L119.172 34.3141Z" fill="#12A89D"/>
<path d="M66.034 25.1551L73.3513 18.8247L66.3743 12.7817H70.5L75.4274 17.089L80.3284 12.7817H84.3746L77.3712 18.8247L84.7641 25.1551H80.5363L75.401 20.5907L70.1597 25.1551H66.034Z" fill="#162D3E"/>
<path d="M83.7242 18.9571C83.7242 17.8 83.951 16.813 84.4124 15.9999C84.87 15.1869 85.5053 14.5213 86.3183 14.0033C87.1314 13.4852 88.0957 13.107 89.2112 12.8763C90.3268 12.6419 91.5407 12.5247 92.8567 12.5247C94.1726 12.5247 95.3865 12.6457 96.5021 12.8877C97.6177 13.1297 98.582 13.5117 99.395 14.0297C100.208 14.5478 100.843 15.2134 101.301 16.0264C101.758 16.8394 101.989 17.8151 101.989 18.9571C101.989 20.0992 101.758 21.0824 101.301 21.903C100.843 22.7236 100.208 23.3929 99.395 23.9148C98.582 24.4328 97.6177 24.8148 96.5021 25.0568C95.3865 25.2988 94.1726 25.4198 92.8567 25.4198C91.5407 25.4198 90.3268 25.2988 89.2112 25.0568C88.0957 24.8148 87.1314 24.4328 86.3183 23.9148C85.5053 23.3967 84.87 22.7274 84.4124 21.903C83.9548 21.0824 83.7242 20.0992 83.7242 18.9571ZM92.8567 22.9013C93.7567 22.9013 94.5697 22.8332 95.2958 22.6933C96.0218 22.5572 96.6458 22.3303 97.1639 22.0202C97.6819 21.7101 98.079 21.3017 98.3551 20.8025C98.6311 20.2996 98.771 19.687 98.771 18.9609C98.771 18.2348 98.6311 17.6222 98.3551 17.1193C98.079 16.6163 97.6819 16.2117 97.1639 15.9016C96.6458 15.5915 96.0218 15.3684 95.2958 15.2398C94.5697 15.1113 93.7567 15.047 92.8567 15.047C91.9566 15.047 91.1436 15.1113 90.4175 15.2398C89.6915 15.3684 89.0675 15.5915 88.5494 15.9016C88.0314 16.2117 87.6343 16.6201 87.3582 17.1193C87.0822 17.6222 86.9423 18.2348 86.9423 18.9609C86.9423 19.687 87.0822 20.3034 87.3582 20.8025C87.6343 21.3055 88.0314 21.7101 88.5494 22.0202C89.0675 22.3303 89.6915 22.5572 90.4175 22.6933C91.1436 22.8332 91.9566 22.9013 92.8567 22.9013Z" fill="#162D3E"/>
<path d="M103.959 25.1552V12.7819H107.019L106.992 15.9471C107.321 15.4101 107.726 14.9412 108.21 14.5328C108.694 14.1282 109.216 13.784 109.779 13.508C110.343 13.2319 110.929 13.0239 111.545 12.884C112.158 12.7479 112.752 12.676 113.323 12.676C115.728 12.676 117.543 13.1638 118.772 14.1395C120.001 15.1151 120.614 16.4273 120.614 18.0686V25.1514H117.422V18.3295C117.422 17.3803 117.04 16.6278 116.28 16.0719C115.52 15.5198 114.317 15.2399 112.672 15.2399C110.891 15.2399 109.518 15.55 108.562 16.174C107.601 16.7979 107.121 17.6715 107.121 18.7946V25.1514H103.956L103.959 25.1552Z" fill="#162D3E"/>
<path fill-rule="evenodd" clip-rule="evenodd" d="M63.9579 21.8878V23.2643C60.5696 25.5257 52.201 26.3539 49.7543 22.3303C47.3265 18.3256 49.6976 15.1264 53.4149 14.1734C53.5699 14.1243 53.5208 14.1734 53.5321 13.9995C53.3771 13.9692 53.2901 13.9125 53.1388 13.8633C51.1648 13.1789 49.7014 11.7343 49.7014 9.49939C49.7014 6.87876 52.1745 5.36991 54.4964 4.90478C57.6162 4.28082 60.3692 4.57578 63.3756 5.32831L63.3377 9.41242H62.2978L61.6436 8.06617C61.4016 7.58591 61.3259 7.13212 60.8343 6.92036C59.5335 6.33421 58.5124 6.24724 57.1284 6.24724C56.27 6.24724 55.1733 6.57623 54.4888 7.0754C52.9195 8.24013 53.0065 10.6679 53.8157 11.8893C54.1712 12.4301 55.1733 13.4095 55.8389 13.3831L61.1747 13.4133V14.9638H55.5401C55.3284 14.9146 55.0674 15.0697 54.8292 15.1642C52.2502 16.2041 51.6791 19.997 53.8082 21.7895C56.5801 24.1303 60.9137 22.5988 63.9693 21.8841L63.9579 21.8878Z" fill="#162D3E"/>
</svg>
