<svg width="86" height="30" viewBox="0 0 86 30" fill="none" xmlns="http://www.w3.org/2000/svg">
<path d="M83.4173 7.1259C83.7087 6.84231 84.0677 6.69922 84.4918 6.69922C84.9159 6.69922 85.2723 6.84231 85.5663 7.1259C85.8551 7.40949 85.9982 7.75552 85.9982 8.16139C85.9982 8.56726 85.8551 8.91329 85.5663 9.19687C85.2749 9.48046 84.9159 9.62356 84.4918 9.62356C84.0677 9.62356 83.7113 9.48046 83.4173 9.19687C83.1259 8.91329 82.9802 8.56726 82.9802 8.16139C82.9802 7.75552 83.1259 7.40949 83.4173 7.1259ZM84.4918 9.33476C84.8327 9.33476 85.1162 9.22289 85.3426 8.99654C85.5741 8.76759 85.6886 8.4892 85.6886 8.16399C85.6886 7.83877 85.5741 7.55519 85.3426 7.32363C85.1162 7.09728 84.8327 6.98541 84.4918 6.98541C84.151 6.98541 83.8596 7.09728 83.6333 7.32363C83.4069 7.54998 83.2872 7.83357 83.2872 8.16399C83.2872 8.49441 83.4017 8.76759 83.6333 8.99654C83.8648 9.22549 84.1458 9.33476 84.4918 9.33476ZM85.0772 8.45798L85.0954 8.68694C85.1006 8.778 85.124 8.85865 85.1709 8.9289H84.8925C84.8561 8.87946 84.8353 8.79881 84.83 8.68694L84.817 8.52563C84.8092 8.43977 84.7884 8.37993 84.7572 8.34611C84.726 8.31229 84.6739 8.29668 84.6011 8.29668H84.1744V8.92629H83.9038V7.36006H84.5699C84.7416 7.36006 84.8769 7.39908 84.9731 7.47453C85.0694 7.54998 85.1188 7.65925 85.1188 7.79975C85.1188 7.98187 85.0434 8.10415 84.8899 8.16919C85.0018 8.21082 85.0616 8.30708 85.0746 8.45798H85.0772ZM84.177 8.04951H84.5959C84.7598 8.04951 84.8431 7.97666 84.8431 7.82837C84.8431 7.68007 84.752 7.60722 84.5725 7.60722H84.177V8.05212V8.04951Z" fill="#09A99D"/>
<path d="M7.17664 20.7848C7.17664 20.8967 7.16623 21.0034 7.13501 21.1048C6.78898 21.0684 6.45596 21.045 6.10473 21.0346H6.09953C5.83155 21.019 5.55577 21.0138 5.28258 21.0138C4.96778 21.0138 4.65817 21.0242 4.34856 21.0398C4.16644 21.045 3.98953 21.0606 3.8048 21.0762C3.37812 21.1074 2.95664 21.1569 2.54297 21.2193C2.68606 20.9956 2.83696 20.777 2.99827 20.5689C3.44837 20.5143 3.90107 20.4778 4.36157 20.4622C4.62435 20.4466 4.88972 20.4414 5.1525 20.4414C5.82634 20.4414 6.49239 20.4778 7.15062 20.5481C7.16623 20.6235 7.17144 20.7042 7.17144 20.7874L7.17664 20.7848Z" fill="white"/>
<path d="M6.3811 22.0989C6.35508 22.3019 6.28483 22.4892 6.17816 22.6505C5.88417 22.6349 5.58497 22.6297 5.28577 22.6297C4.78364 22.6297 4.28151 22.6505 3.78978 22.6895C3.11073 22.7389 2.43949 22.8378 1.78125 22.9627C1.84109 22.7441 1.91394 22.5308 1.99459 22.3227C2.51233 22.2368 3.03528 22.1666 3.56603 22.1249C4.07857 22.0781 4.59111 22.0547 5.11406 22.0547H5.16089C5.54594 22.0547 5.931 22.0651 6.31085 22.0963H6.31605C6.33687 22.0911 6.36289 22.0963 6.3811 22.0963V22.0989Z" fill="#12A89D"/>
<path d="M5.5496 23.8654C5.5496 23.9408 5.55481 24.0163 5.57042 24.0943C5.47936 24.0891 5.38309 24.0891 5.28683 24.0891C3.99897 24.0891 2.73714 24.2218 1.51953 24.469C1.53514 24.2609 1.55596 24.0579 1.58457 23.8602C2.73974 23.6312 3.93653 23.5142 5.15934 23.5142C5.30764 23.5142 5.44813 23.5142 5.59123 23.5194C5.56521 23.6312 5.5496 23.7483 5.5496 23.8654Z" fill="#12A89D"/>
<path d="M14.2883 16.6169C14.2883 16.9968 14.14 17.348 13.8928 17.6056C13.193 17.4677 12.4723 17.3974 11.7334 17.3974H11.6788C10.9035 17.4026 10.1464 17.4833 9.41788 17.6368C9.19934 17.387 9.06665 17.0644 9.06665 16.7028C9.06665 16.4894 9.11348 16.2917 9.19414 16.1096H9.19934C9.97465 15.9275 10.7864 15.8312 11.6137 15.826C11.6398 15.8208 11.6632 15.8208 11.6892 15.8208H11.736C12.579 15.8208 13.3985 15.9119 14.1894 16.0888C14.2545 16.2501 14.2909 16.4296 14.2909 16.6169H14.2883Z" fill="white"/>
<path d="M16.3197 26.1161C16.3197 26.1707 16.3145 26.2331 16.3093 26.2878C15.5392 26.6338 14.7431 26.9278 13.9261 27.1594C12.287 27.6355 10.5595 27.8904 8.76951 27.8904C7.26311 27.8904 5.80355 27.7135 4.40382 27.3675C3.51143 27.1542 2.65026 26.8758 1.8125 26.5402C1.8177 26.012 2.10649 25.5567 2.53318 25.3121C3.1732 25.5463 3.83144 25.7388 4.50528 25.8949C5.87379 26.2201 7.29954 26.3919 8.76951 26.3919C10.4086 26.3919 11.9956 26.1785 13.5125 25.7778C14.293 25.5697 15.0605 25.3173 15.7994 25.0129H15.8046C16.1194 25.2705 16.3223 25.666 16.3223 26.1135L16.3197 26.1161Z" fill="white"/>
<path d="M15.7696 3.73065C15.7696 4.16774 15.5719 4.558 15.2623 4.82078C14.5676 4.66467 13.8573 4.5528 13.1367 4.47995H13.1315C12.5123 4.41491 11.8878 4.38369 11.2608 4.38369C10.4049 4.38369 9.5619 4.43832 8.73455 4.5554C8.07631 4.64126 7.43109 4.76874 6.80147 4.92485C6.40601 4.67248 6.14844 4.23019 6.14844 3.72805C6.14844 3.68642 6.14844 3.6422 6.15364 3.60057C7.02001 3.3508 7.9072 3.16348 8.82041 3.0438H8.82561C9.62174 2.94233 10.4335 2.8877 11.2608 2.8877C11.8904 2.8877 12.5123 2.91892 13.1315 2.98396C14.0187 3.06982 14.885 3.22332 15.7332 3.43406H15.7384C15.7592 3.52512 15.7696 3.62659 15.7696 3.72805V3.73065Z" fill="white"/>
<path d="M7.687 9.01726C7.01835 9.14474 6.3341 9.20978 5.62903 9.20978C5.5796 9.20978 5.52236 9.20978 5.47293 9.20458C5.39748 9.20978 5.32203 9.20458 5.24398 9.19938C4.46866 9.17856 3.71156 9.07189 2.98828 8.89497C3.19122 8.69204 3.45399 8.54894 3.74278 8.49951H3.74798C4.02637 8.54894 4.30996 8.58537 4.59875 8.60618C4.93957 8.64261 5.283 8.65562 5.62903 8.65562C5.7253 8.65562 5.82676 8.65562 5.92303 8.65041C6.40955 8.64001 6.89087 8.59578 7.35918 8.52293C7.47626 8.68423 7.58293 8.84814 7.6896 9.01465L7.687 9.01726Z" fill="#12A89D"/>
<path d="M5.62752 7.64393C5.12539 7.64393 4.63366 7.61271 4.15234 7.54246C4.22259 7.37595 4.25901 7.19643 4.26422 7.00391C4.71171 7.06375 5.16702 7.08976 5.62752 7.08976C5.80444 7.08976 5.98656 7.08456 6.16608 7.07415C6.33259 7.24066 6.49129 7.41498 6.63699 7.5919C6.30137 7.62832 5.96835 7.64133 5.62752 7.64133V7.64393Z" fill="#12A89D"/>
<path d="M6.73319 13.3074C6.57709 13.5103 6.40277 13.7081 6.22585 13.9006C6.02812 13.911 5.82519 13.9162 5.62746 13.9162C5.33866 13.9162 5.05508 13.9058 4.77149 13.8798C4.53213 13.6821 4.30058 13.4739 4.08203 13.2554C4.58416 13.3256 5.10191 13.362 5.63006 13.362C6.00471 13.362 6.37155 13.3412 6.73579 13.3074H6.73319Z" fill="white"/>
<path d="M7.8986 11.5491C7.78673 11.7625 7.66444 11.9706 7.53956 12.1735C6.91515 12.2802 6.27773 12.3348 5.62729 12.3348C4.93263 12.3348 4.24838 12.2698 3.58234 12.1475C3.38461 12.1111 3.19208 12.0721 2.99955 12.0252C2.83304 11.8067 2.66913 11.5777 2.52344 11.3462C2.95532 11.4737 3.40022 11.5699 3.85292 11.6402C4.4305 11.7312 5.02369 11.7781 5.62729 11.7781C6.40781 11.7781 7.16491 11.7026 7.8986 11.5491Z" fill="white"/>
<path d="M8.01945 10.5082C7.24934 10.6747 6.44801 10.7606 5.62587 10.7606C5.46456 10.7606 5.30065 10.7554 5.13934 10.7502C4.89478 10.7398 4.65282 10.719 4.41346 10.6955C3.80986 10.6357 3.22187 10.5238 2.6547 10.3651H2.64949C2.56364 10.3443 2.47778 10.3183 2.39713 10.2949C2.39192 10.1674 2.38672 10.0373 2.38672 9.90462C2.38672 9.84999 2.38672 9.78755 2.39192 9.73291C2.45176 9.75372 2.5142 9.77454 2.57925 9.78755C3.28431 9.98528 4.01019 10.118 4.75949 10.1674C4.96763 10.1882 5.17577 10.1934 5.38911 10.1986C5.46976 10.2038 5.54521 10.2038 5.62847 10.2038C6.41939 10.2038 7.1895 10.1232 7.9362 9.95926C7.97782 10.1362 8.00124 10.3235 8.02205 10.5082H8.01945Z" fill="#12A89D"/>
<path d="M6.91556 19.6166C6.51489 19.5906 6.10902 19.575 5.69795 19.575C5.24265 19.575 4.79515 19.5906 4.34766 19.6244C4.5714 19.4058 4.79775 19.1873 5.03191 18.9792C5.22964 18.974 5.43258 18.9688 5.63551 18.9688C5.99975 18.9688 6.36139 18.9792 6.72043 19.0052C6.78547 19.2081 6.85312 19.411 6.91296 19.614L6.91556 19.6166Z" fill="white"/>
<path d="M3.83536 6.19705V6.24648H3.83016C3.81975 7.0322 3.48933 7.73727 2.96378 8.24981C2.46165 8.69731 2.11562 9.31392 2.02976 10.0138C1.90228 9.68856 1.83203 9.33993 1.83203 8.96789C1.83203 8.94707 1.83203 8.93146 1.83723 8.91325C1.84764 8.14834 2.16245 7.46409 2.66458 6.95675C2.74003 6.8813 2.81548 6.81366 2.89874 6.74862C3.2942 6.35836 3.57259 5.84582 3.68446 5.27344C3.78072 5.56223 3.83536 5.87183 3.83536 6.19705Z" fill="#12A89D"/>
<path d="M8.20255 21.8201V21.8695H8.19734C8.18694 22.6552 7.85652 23.3603 7.33097 23.8729C6.82884 24.3204 6.48281 24.937 6.39695 25.6368C6.26947 25.3116 6.19922 24.963 6.19922 24.5909C6.19922 24.5701 6.19922 24.5545 6.20442 24.5363C6.21483 23.7714 6.52964 23.0871 7.03177 22.5798C7.10722 22.5044 7.18267 22.4367 7.26593 22.3717C7.66139 21.9814 7.93977 21.4689 8.05165 20.8965C8.14791 21.1853 8.20255 21.4949 8.20255 21.8201Z" fill="#12A89D"/>
<path d="M5.51149 14.8188C4.9131 15.2507 4.24445 15.5889 3.52378 15.8179C2.75366 15.144 2.13445 14.3063 1.71298 13.3593C1.32792 12.4773 1.10938 11.5042 1.10938 10.4791C1.10938 9.8105 1.20044 9.16528 1.37215 8.55127C1.42679 10.5442 2.30096 12.329 3.66427 13.5934C4.21323 14.0955 4.82984 14.5118 5.51149 14.8214V14.8188Z" fill="white"/>
<path d="M5.51149 14.8188C4.9131 15.2507 4.24445 15.5889 3.52378 15.8179C2.75366 15.144 2.13445 14.3063 1.71298 13.3593C1.32792 12.4773 1.10938 11.5042 1.10938 10.4791C1.10938 9.8105 1.20044 9.16528 1.37215 8.55127C1.42679 10.5442 2.30096 12.329 3.66427 13.5934C4.21323 14.0955 4.82984 14.5118 5.51149 14.8214V14.8188Z" fill="white"/>
<path d="M8.74541 9.28259C8.74541 9.76391 8.66476 10.227 8.51646 10.6563C8.415 10.9607 8.2719 11.2547 8.10539 11.5227C8.20165 11.1714 8.25369 10.8072 8.25369 10.4274C8.25369 8.88453 7.43675 7.53163 6.20873 6.77973C6.1671 6.75372 6.12808 6.7303 6.08125 6.70949C6.03962 6.68347 6.00059 6.66005 5.95897 6.63924C5.29553 6.24898 4.74656 5.68701 4.38232 5.00536C4.0467 4.39655 3.85938 3.70189 3.85938 2.9604C3.85938 2.85894 3.86458 2.75747 3.86978 2.656C3.91661 1.99256 4.11434 1.37335 4.42655 0.82959C4.37191 1.04293 4.34069 1.26148 4.32508 1.48262C4.31988 1.58409 4.31468 1.68556 4.31468 1.78702C4.31468 3.36887 5.17064 4.74779 6.45069 5.48928C6.4611 5.49448 6.47151 5.49969 6.48191 5.50489C6.55736 5.54652 6.63021 5.58554 6.70046 5.63237C7.34048 6.02263 7.86603 6.5768 8.22247 7.23504C8.55809 7.83864 8.74541 8.5385 8.74541 9.27999V9.28259Z" fill="white"/>
<path d="M8.9263 20.4313C8.9263 20.9491 8.87167 21.446 8.765 21.9273C8.50222 20.4105 7.76593 19.0576 6.70703 18.0273C7.19355 17.7333 7.63585 17.3769 8.03131 16.9814C8.13798 17.1636 8.23424 17.3561 8.3201 17.5538C8.71036 18.4306 8.9289 19.4036 8.9289 20.4287L8.9263 20.4313Z" fill="white"/>
<path d="M9.77988 11.6293C9.77988 13.2918 9.21271 14.819 8.25267 16.0314C7.52679 16.9602 6.56935 17.7043 5.46882 18.1778C5.45842 18.183 5.44801 18.1882 5.44281 18.1882C5.33093 18.2377 5.21906 18.2845 5.10198 18.3261C5.09157 18.3313 5.08117 18.3313 5.07076 18.3365C2.53928 19.4319 0.764907 21.9529 0.764907 24.8851C0.764907 25.5251 0.84556 26.1365 1.00427 26.7271C0.364241 25.6578 0 24.4038 0 23.0717C0 21.4092 0.567176 19.882 1.52201 18.6696C2.24789 17.7459 3.19492 17.0071 4.28504 16.5335C4.46196 16.4737 4.63627 16.4061 4.80278 16.3306C7.33426 15.2405 9.10343 12.7194 9.10343 9.78727C9.10343 9.27993 9.054 8.783 8.94733 8.30688C9.48068 9.29554 9.77988 10.4325 9.77988 11.6345V11.6293Z" fill="#12A89D"/>
<path d="M24.7341 2.23486C24.8408 4.49576 24.911 6.75666 24.9475 9.01756C24.9917 11.2785 25.0021 13.5394 25.0073 15.8003C25.0021 18.0612 24.9917 20.3221 24.9475 22.5829C24.911 24.8438 24.8408 27.1047 24.7341 29.3656C24.6274 27.1047 24.5546 24.8438 24.5208 22.5829C24.4765 20.3221 24.4661 18.0612 24.4609 15.8003C24.4661 13.5394 24.4792 11.2785 24.5208 9.01756C24.5572 6.75666 24.6274 4.49576 24.7341 2.23486Z" fill="white"/>
<path d="M35.3694 26.4199V23.3759H33.5508V22.6084H38.2469V23.3759H36.4283V26.4199H35.372H35.3694Z" fill="#12A89D"/>
<path d="M38.6797 26.4199V22.2285H39.7074V24.185C39.9077 23.9404 40.1236 23.7635 40.3578 23.6543C40.5919 23.545 40.8339 23.4878 41.0811 23.4825C41.3933 23.4695 41.6639 23.4956 41.8876 23.5606C42.114 23.6256 42.2987 23.7167 42.4418 23.8338C42.5849 23.9509 42.6915 24.0913 42.7592 24.2501C42.8268 24.4114 42.8606 24.5779 42.8606 24.7548V26.4173H41.833V24.8563C41.833 24.6429 41.7549 24.479 41.6014 24.3567C41.4479 24.237 41.2007 24.1772 40.8599 24.1772C40.4723 24.1772 40.1809 24.2475 39.9883 24.3905C39.7958 24.5336 39.6996 24.7236 39.6996 24.9629V26.4147H38.6719L38.6797 26.4199Z" fill="#12A89D"/>
<path d="M47.4088 25.4571C47.3281 25.8161 47.1096 26.0763 46.7532 26.2376C46.3967 26.3989 45.9154 26.477 45.3066 26.477C44.9293 26.477 44.6067 26.4327 44.3361 26.3469C44.0656 26.261 43.8444 26.1466 43.6727 26.0009C43.501 25.8578 43.3735 25.6913 43.2955 25.5065C43.2174 25.3218 43.1758 25.1241 43.1758 24.9211C43.1758 24.7182 43.2148 24.5335 43.2903 24.3566C43.3657 24.1797 43.4906 24.0236 43.6623 23.8883C43.834 23.753 44.0604 23.6463 44.3388 23.5682C44.6171 23.4902 44.958 23.4512 45.3638 23.4512C45.6916 23.4512 45.9882 23.485 46.2562 23.5526C46.5216 23.6203 46.7479 23.7244 46.9327 23.8648C47.1174 24.0053 47.2553 24.1823 47.3489 24.393C47.4426 24.6037 47.479 24.8561 47.4608 25.1501H44.1696C44.1826 25.249 44.2191 25.3426 44.2841 25.4285C44.3492 25.5143 44.4324 25.5898 44.5339 25.6548C44.6353 25.7199 44.755 25.7693 44.8929 25.8057C45.0308 25.8422 45.1791 25.8604 45.3404 25.8604C45.5616 25.8604 45.7385 25.8474 45.8712 25.8187C46.0065 25.7901 46.1105 25.7563 46.1886 25.7173C46.2666 25.6782 46.3213 25.634 46.3499 25.5846C46.3785 25.5352 46.4019 25.4935 46.4123 25.4597H47.4088V25.4571ZM46.4175 24.6454C46.4019 24.5803 46.3707 24.5153 46.3239 24.4476C46.277 24.38 46.212 24.3175 46.1287 24.2655C46.0455 24.2109 45.9388 24.1692 45.8087 24.1354C45.6786 24.1042 45.5173 24.0886 45.3248 24.0886C44.984 24.0886 44.7238 24.1432 44.5417 24.2551C44.3596 24.367 44.2425 24.4971 44.1905 24.648H46.4175V24.6454Z" fill="#12A89D"/>
<path d="M47.8802 23.5057H48.8949L48.9001 24.2732C49.1082 23.7528 49.5141 23.4927 50.1177 23.4927H50.7421V24.2862L50.0448 24.2914C49.8835 24.2914 49.7352 24.3122 49.5973 24.3538C49.4595 24.3955 49.3398 24.4527 49.2383 24.5256C49.1368 24.5984 49.0562 24.6817 48.9937 24.7779C48.9339 24.8742 48.9027 24.9757 48.9027 25.0849V26.417H47.875V23.5057H47.8802Z" fill="#12A89D"/>
<path d="M53.8367 24.3543C53.8211 24.2814 53.7691 24.2294 53.6832 24.193C53.5973 24.1566 53.5011 24.1332 53.397 24.1175C53.2929 24.1045 53.1889 24.0967 53.0822 24.0941C52.9755 24.0941 52.8923 24.0915 52.8324 24.0915C52.7804 24.0915 52.7024 24.0967 52.6009 24.1045C52.4994 24.1123 52.3979 24.1279 52.2965 24.1514C52.1976 24.1748 52.1092 24.2112 52.0363 24.258C51.9635 24.3075 51.9244 24.3699 51.9244 24.4506H50.9228C50.9228 24.3023 50.9566 24.1748 51.0216 24.0655C51.0867 23.9562 51.1751 23.8652 51.2818 23.7923C51.3885 23.7195 51.5134 23.6596 51.6513 23.6154C51.7891 23.5712 51.9296 23.5374 52.0753 23.5139C52.2184 23.4905 52.3615 23.4749 52.4994 23.4671C52.6373 23.4593 52.7596 23.4541 52.8689 23.4541C52.9495 23.4541 53.0536 23.4567 53.1837 23.4619C53.3138 23.4671 53.4516 23.4827 53.5973 23.5035C53.743 23.5243 53.8913 23.5556 54.0422 23.592C54.1931 23.6284 54.3284 23.6778 54.4481 23.7403C54.5678 23.8027 54.6667 23.8782 54.7421 23.9692C54.8176 24.0603 54.8566 24.167 54.8566 24.2893V25.6812C54.8566 25.7124 54.8696 25.7358 54.8982 25.7514C54.9268 25.7644 54.958 25.7722 54.9971 25.7748C55.0361 25.7748 55.0725 25.7748 55.1116 25.7748C55.1506 25.7748 55.1818 25.7696 55.2052 25.767V26.4227C55.1167 26.4227 55.0231 26.4227 54.9242 26.4279C54.8254 26.4305 54.7213 26.4331 54.6172 26.4331C54.5366 26.4331 54.4533 26.4253 54.3623 26.4123C54.2712 26.3993 54.1905 26.3732 54.1125 26.3368C54.037 26.3004 53.972 26.251 53.92 26.1885C53.8679 26.1261 53.8419 26.048 53.8419 25.9518C53.7665 26.0506 53.6702 26.1365 53.5557 26.2067C53.4412 26.277 53.319 26.3342 53.1863 26.3784C53.0536 26.4227 52.9183 26.4539 52.7804 26.4747C52.6425 26.4955 52.515 26.5059 52.3979 26.5059C52.2575 26.5059 52.0935 26.4955 51.9062 26.4721C51.7189 26.4487 51.5368 26.4071 51.3651 26.3394C51.1934 26.2744 51.0477 26.1807 50.9306 26.061C50.8135 25.9413 50.7537 25.7852 50.7537 25.5927C50.7537 25.4314 50.8005 25.2987 50.8916 25.1895C50.9826 25.0802 51.1023 24.9917 51.248 24.9189C51.3937 24.846 51.5602 24.7914 51.7423 24.7498C51.927 24.7107 52.1118 24.6795 52.2965 24.6561C52.4838 24.6353 52.6607 24.6197 52.8272 24.6119C52.9963 24.6041 53.1368 24.5937 53.2539 24.5832C53.319 24.5754 53.3866 24.5676 53.4569 24.5598C53.5271 24.552 53.5947 24.539 53.652 24.5208C53.7092 24.5026 53.7561 24.4818 53.7925 24.4558C53.8289 24.4297 53.8393 24.3959 53.8289 24.3569L53.8367 24.3543ZM53.8497 24.9475C53.7977 24.9787 53.73 25.0047 53.6468 25.0229C53.5635 25.0412 53.4699 25.0594 53.3658 25.0802C53.2123 25.1036 53.0484 25.127 52.8663 25.1504C52.6867 25.1712 52.5176 25.1973 52.3615 25.2285C52.2054 25.2597 52.0753 25.2987 51.9713 25.3456C51.8672 25.395 51.8152 25.46 51.8152 25.5433C51.8152 25.6187 51.849 25.6812 51.914 25.728C51.9791 25.7748 52.0571 25.8139 52.1482 25.8425C52.2392 25.8711 52.3303 25.8893 52.4214 25.8971C52.5124 25.9049 52.5853 25.9101 52.6373 25.9101C52.7128 25.9101 52.8194 25.8997 52.9547 25.8789C53.09 25.8581 53.2253 25.8269 53.358 25.78C53.4907 25.7332 53.6052 25.676 53.704 25.6031C53.8029 25.5303 53.8523 25.4418 53.8523 25.3404V24.9501L53.8497 24.9475Z" fill="#12A89D"/>
<path d="M56.5941 25.7646V27.6248H55.5664V23.5115H56.5629V24.1724C56.6149 24.0891 56.6929 24.0032 56.7944 23.92C56.8959 23.8367 57.0156 23.7613 57.1509 23.6936C57.2861 23.6286 57.4344 23.574 57.5931 23.5349C57.7519 23.4959 57.9132 23.4751 58.0771 23.4751C58.3685 23.4751 58.6416 23.5089 58.8914 23.5766C59.1412 23.6442 59.3571 23.7431 59.5392 23.8732C59.7214 24.0032 59.8645 24.1594 59.9685 24.3441C60.0726 24.5288 60.1246 24.7343 60.1246 24.9633C60.1246 25.1922 60.0726 25.3978 59.9685 25.5825C59.8645 25.7672 59.7214 25.9233 59.5392 26.0508C59.3571 26.1783 59.1412 26.2772 58.8914 26.3474C58.6416 26.4176 58.3711 26.4515 58.0849 26.4515C57.9236 26.4515 57.7675 26.4307 57.614 26.3916C57.4605 26.3526 57.3174 26.298 57.1847 26.2329C57.052 26.1679 56.9349 26.0924 56.8334 26.0118C56.732 25.9311 56.6513 25.8479 56.5967 25.762L56.5941 25.7646ZM57.8429 24.1489C57.6634 24.1489 57.4969 24.1672 57.3434 24.2062C57.1899 24.2452 57.0598 24.2998 56.9479 24.3727C56.836 24.4455 56.7476 24.5288 56.6825 24.6277C56.6175 24.7265 56.5863 24.8358 56.5863 24.9555C56.5863 25.0752 56.6175 25.1844 56.6825 25.2833C56.7476 25.3822 56.8334 25.4654 56.9427 25.5383C57.052 25.6111 57.1847 25.6658 57.3382 25.7022C57.4917 25.7412 57.6582 25.7594 57.8403 25.7594C58.0224 25.7594 58.1994 25.7412 58.3503 25.7022C58.5012 25.6631 58.6338 25.6085 58.7457 25.5383C58.8576 25.4654 58.9434 25.3822 59.0033 25.2833C59.0631 25.1844 59.0943 25.0752 59.0943 24.9555C59.0943 24.8358 59.0631 24.7213 59.0033 24.6225C58.9434 24.5236 58.8576 24.4403 58.7457 24.3701C58.6338 24.2998 58.5012 24.2452 58.3503 24.2088C58.1994 24.1698 58.0276 24.1515 57.8403 24.1515L57.8429 24.1489Z" fill="#12A89D"/>
<path d="M64.6979 25.4571C64.6172 25.8161 64.3987 26.0763 64.0422 26.2376C63.6858 26.3989 63.2045 26.477 62.5957 26.477C62.2184 26.477 61.8958 26.4327 61.6252 26.3469C61.3546 26.261 61.1335 26.1466 60.9618 26.0009C60.7901 25.8578 60.6626 25.6913 60.5845 25.5065C60.5065 25.3218 60.4648 25.1241 60.4648 24.9211C60.4648 24.7182 60.5039 24.5335 60.5793 24.3566C60.6548 24.1797 60.7797 24.0236 60.9514 23.8883C61.1231 23.753 61.3494 23.6463 61.6278 23.5682C61.9062 23.4902 62.247 23.4512 62.6529 23.4512C62.9807 23.4512 63.2773 23.485 63.5453 23.5526C63.8107 23.6203 64.037 23.7244 64.2217 23.8648C64.4065 24.0053 64.5444 24.1823 64.638 24.393C64.7317 24.6063 64.7681 24.8561 64.7499 25.1501H61.4587C61.4717 25.249 61.5081 25.3426 61.5732 25.4285C61.6382 25.5143 61.7215 25.5898 61.8229 25.6548C61.9244 25.7199 62.0441 25.7693 62.182 25.8057C62.3199 25.8422 62.4682 25.8604 62.6295 25.8604C62.8506 25.8604 63.0275 25.8474 63.1602 25.8187C63.2955 25.7901 63.3996 25.7563 63.4776 25.7173C63.5557 25.6782 63.6103 25.634 63.639 25.5846C63.6676 25.5352 63.691 25.4935 63.7014 25.4597H64.6979V25.4571ZM63.7066 24.6454C63.691 24.5803 63.6598 24.5153 63.6129 24.4476C63.5661 24.38 63.5011 24.3175 63.4178 24.2655C63.3345 24.2109 63.2279 24.1692 63.0978 24.1354C62.9677 24.1042 62.8064 24.0886 62.6139 24.0886C62.273 24.0886 62.0129 24.1432 61.8307 24.2551C61.6486 24.367 61.5316 24.4971 61.4795 24.648H63.7066V24.6454Z" fill="#12A89D"/>
<path d="M68.2863 26.4252V25.7695C68.2109 25.9048 68.1172 26.0193 68.0106 26.1077C67.9039 26.1988 67.7816 26.2691 67.6515 26.3211C67.5188 26.3731 67.3783 26.4095 67.2326 26.4304C67.0843 26.4512 66.9308 26.459 66.7695 26.459C66.4807 26.459 66.2336 26.4278 66.0254 26.3653C65.8173 26.3029 65.6456 26.2144 65.5129 26.0999C65.3776 25.9855 65.2813 25.8502 65.2189 25.6915C65.1565 25.5328 65.1252 25.3584 65.1252 25.1659V23.5034H66.1451V25.0957C66.1451 25.2049 66.1581 25.3038 66.1841 25.3923C66.2102 25.4833 66.257 25.5588 66.3272 25.6238C66.3975 25.6889 66.4963 25.7357 66.6212 25.7721C66.7461 25.8059 66.9126 25.8242 67.1156 25.8242C67.5006 25.8242 67.7842 25.7487 67.9689 25.5952C68.1537 25.4417 68.2447 25.244 68.2447 24.9942V23.506H69.2724V26.4174L68.2889 26.4226L68.2863 26.4252Z" fill="#12A89D"/>
<path d="M71.3148 25.4833C71.3148 25.5717 71.3512 25.6316 71.4267 25.6654C71.5021 25.6992 71.6166 25.7174 71.7779 25.7174C71.8508 25.7174 71.9132 25.7174 71.9704 25.7148C72.0277 25.7122 72.0823 25.7122 72.1395 25.7096C72.1968 25.7096 72.254 25.7044 72.3139 25.7018C72.3737 25.6992 72.4413 25.694 72.5168 25.6888V26.3679C72.2488 26.4147 71.9756 26.4407 71.6998 26.4407C71.4423 26.4407 71.2263 26.4251 71.0494 26.3939C70.8725 26.3627 70.7268 26.3106 70.6149 26.2404C70.5031 26.1701 70.4224 26.0791 70.3704 25.9698C70.3183 25.8605 70.2949 25.7253 70.2949 25.5639V24.1538H69.5977V23.5112H70.2949V22.5928H71.3148V23.5112H72.5688V24.1538H71.3148V25.4859V25.4833Z" fill="#12A89D"/>
<path d="M72.9375 22.3169H73.9886V23.0792H72.9375V22.3169ZM72.9505 26.4172V23.5059H73.9782V26.4172H72.9505Z" fill="#12A89D"/>
<path d="M76.6203 25.7459C76.7556 25.7459 76.8857 25.7381 77.0106 25.7225C77.1354 25.7069 77.2473 25.6782 77.3462 25.6418C77.4451 25.6028 77.5335 25.5534 77.6038 25.4883C77.674 25.4233 77.7286 25.3452 77.7651 25.249L78.8032 25.2438C78.7589 25.4727 78.6705 25.6626 78.5352 25.8161C78.3999 25.9696 78.236 26.0945 78.0408 26.1882C77.8457 26.2818 77.6246 26.3495 77.3774 26.3911C77.1302 26.4327 76.8753 26.4536 76.6125 26.4536C76.3003 26.4536 76.0089 26.4275 75.7357 26.3755C75.4625 26.3235 75.2284 26.2376 75.0307 26.1205C74.8329 26.0035 74.6768 25.8474 74.5623 25.6548C74.4479 25.4623 74.3906 25.2255 74.3906 24.9472C74.3906 24.6844 74.4427 24.4554 74.5467 24.2655C74.6508 24.0756 74.7991 23.9195 74.9916 23.7998C75.1842 23.6801 75.4183 23.5917 75.6915 23.5318C75.9647 23.4746 76.2717 23.4434 76.6125 23.4434C77.9134 23.4434 78.6496 23.8674 78.8214 24.7156H77.7755C77.7156 24.5023 77.5829 24.3566 77.38 24.2733C77.1771 24.1901 76.9195 24.151 76.6125 24.151C76.433 24.151 76.2691 24.164 76.1234 24.1901C75.9777 24.2161 75.8528 24.2603 75.7487 24.3227C75.6447 24.3852 75.564 24.4658 75.5094 24.5647C75.4521 24.6636 75.4261 24.7911 75.4261 24.942C75.4261 25.0929 75.4547 25.2151 75.5146 25.3166C75.5718 25.4181 75.6525 25.5013 75.7565 25.5638C75.8606 25.6262 75.9855 25.6704 76.1312 25.6991C76.2769 25.7277 76.4408 25.7407 76.6203 25.7407V25.7459Z" fill="#12A89D"/>
<path d="M81.9895 24.4374C81.9895 24.3463 81.9505 24.2735 81.8724 24.2241C81.7944 24.1746 81.7033 24.1356 81.5966 24.1122C81.49 24.0888 81.3807 24.0732 81.2688 24.0706C81.1569 24.0679 81.0633 24.0653 80.9878 24.0653C80.9306 24.0653 80.8525 24.0705 80.7511 24.0784C80.6496 24.0862 80.5481 24.1018 80.4519 24.1252C80.353 24.1486 80.2698 24.1824 80.2021 24.2267C80.1345 24.2709 80.1033 24.3255 80.1111 24.3958C80.1163 24.4426 80.1475 24.4816 80.2099 24.5102C80.2724 24.5389 80.3556 24.5623 80.4597 24.5805C80.5638 24.5987 80.6834 24.6143 80.8161 24.6247C80.9514 24.6377 81.0919 24.6481 81.2402 24.6611C81.4405 24.682 81.6435 24.7054 81.849 24.7366C82.0545 24.7652 82.2419 24.8146 82.411 24.8771C82.5801 24.9421 82.7154 25.0254 82.822 25.1321C82.9287 25.2387 82.9808 25.3766 82.9808 25.5483C82.9808 25.6836 82.9495 25.8033 82.8845 25.9022C82.8195 26.001 82.7362 26.0869 82.6321 26.1545C82.5281 26.2222 82.4084 26.2768 82.2757 26.321C82.143 26.3653 82.0051 26.3965 81.8646 26.4199C81.7241 26.4433 81.5862 26.4589 81.4535 26.4667C81.3209 26.4745 81.1986 26.4797 81.0893 26.4797C80.9644 26.4797 80.8291 26.4745 80.6834 26.4641C80.5377 26.4537 80.392 26.4355 80.2463 26.4095C80.1006 26.3835 79.9602 26.3471 79.8275 26.2976C79.6922 26.2508 79.5751 26.1884 79.471 26.1155C79.367 26.0427 79.2837 25.9516 79.2213 25.8475C79.1588 25.7435 79.1276 25.6186 79.1276 25.4755H80.1059C80.1059 25.5639 80.1475 25.6342 80.2281 25.6862C80.3088 25.7383 80.405 25.7773 80.5143 25.8033C80.6236 25.8293 80.7303 25.8449 80.8395 25.8501C80.9462 25.8553 81.0295 25.8579 81.0867 25.8579C81.1309 25.8579 81.2012 25.8553 81.3 25.8501C81.3989 25.8449 81.4978 25.8319 81.5992 25.8111C81.7007 25.7903 81.7918 25.7591 81.8698 25.7122C81.9479 25.6654 81.9869 25.6056 81.9869 25.5301C81.9869 25.4703 81.9531 25.4208 81.8828 25.387C81.8126 25.3506 81.7215 25.322 81.607 25.3038C81.4926 25.283 81.3599 25.2673 81.2116 25.2517C81.0633 25.2361 80.9046 25.2231 80.7407 25.2075C80.5481 25.1867 80.3556 25.1607 80.1605 25.1295C79.9654 25.0982 79.7936 25.0488 79.6401 24.9864C79.4866 24.9239 79.3644 24.8381 79.2681 24.7366C79.1718 24.6351 79.125 24.5024 79.125 24.3437C79.125 24.1668 79.1822 24.0211 79.2993 23.9066C79.4164 23.7922 79.5647 23.6985 79.7494 23.6335C79.9341 23.5684 80.1397 23.5216 80.3686 23.4956C80.5976 23.4696 80.8213 23.4565 81.0425 23.4565C81.2376 23.4565 81.4483 23.4696 81.6695 23.493C81.8906 23.5164 82.0988 23.5658 82.2913 23.6361C82.4838 23.7089 82.6451 23.8078 82.7752 23.9353C82.9053 24.0627 82.973 24.2319 82.9756 24.44H81.9973L81.9895 24.4374Z" fill="#12A89D"/>
<path d="M45.4297 18.1359L50.464 13.7806L45.6638 9.62305H48.5023L51.8924 12.5864L55.2642 9.62305H58.0481L53.2297 13.7806L58.316 18.1359H55.4073L51.8742 14.9956L48.2682 18.1359H45.4297Z" fill="white"/>
<path d="M57.6018 13.8718C57.6018 13.0757 57.7579 12.3966 58.0753 11.8373C58.3901 11.2779 58.8272 10.82 59.3866 10.4636C59.946 10.1071 60.6094 9.84695 61.3769 9.68825C62.1444 9.52694 62.9796 9.44629 63.885 9.44629C64.7904 9.44629 65.6255 9.52954 66.393 9.69606C67.1605 9.86257 67.824 10.1253 68.3834 10.4818C68.9427 10.8382 69.3798 11.2961 69.6946 11.8555C70.0094 12.4149 70.1681 13.0861 70.1681 13.8718C70.1681 14.6575 70.0094 15.334 69.6946 15.8986C69.3798 16.4631 68.9427 16.9236 68.3834 17.2827C67.824 17.6391 67.1605 17.9019 66.393 18.0684C65.6255 18.2349 64.7904 18.3182 63.885 18.3182C62.9796 18.3182 62.1444 18.2349 61.3769 18.0684C60.6094 17.9019 59.946 17.6391 59.3866 17.2827C58.8272 16.9262 58.3901 16.4657 58.0753 15.8986C57.7605 15.334 57.6018 14.6575 57.6018 13.8718ZM63.885 16.5854C64.5042 16.5854 65.0636 16.5386 65.5631 16.4423C66.0626 16.3487 66.4919 16.1926 66.8483 15.9792C67.2048 15.7659 67.478 15.4849 67.6679 15.1415C67.8578 14.7954 67.9541 14.374 67.9541 13.8744C67.9541 13.3749 67.8578 12.9534 67.6679 12.6074C67.478 12.2614 67.2048 11.983 66.8483 11.7696C66.4919 11.5563 66.0626 11.4028 65.5631 11.3143C65.0636 11.2259 64.5042 11.1816 63.885 11.1816C63.2658 11.1816 62.7064 11.2259 62.2069 11.3143C61.7073 11.4028 61.278 11.5563 60.9216 11.7696C60.5652 11.983 60.292 12.264 60.1021 12.6074C59.9121 12.9534 59.8159 13.3749 59.8159 13.8744C59.8159 14.374 59.9121 14.798 60.1021 15.1415C60.292 15.4875 60.5652 15.7659 60.9216 15.9792C61.278 16.1926 61.7073 16.3487 62.2069 16.4423C62.7064 16.5386 63.2658 16.5854 63.885 16.5854Z" fill="white"/>
<path d="M71.5221 18.136V9.62314H73.6269L73.6087 11.8008C73.8351 11.4313 74.1135 11.1087 74.4465 10.8277C74.7795 10.5494 75.1385 10.3126 75.5262 10.1227C75.9138 9.93275 76.3171 9.78965 76.7412 9.69339C77.1627 9.59973 77.5711 9.55029 77.964 9.55029C79.6187 9.55029 80.8675 9.88592 81.7131 10.5572C82.5586 11.2284 82.9801 12.1312 82.9801 13.2604V18.1334H80.7843V13.4399C80.7843 12.7868 80.5215 12.2691 79.9986 11.8866C79.4756 11.5068 78.6483 11.3143 77.5165 11.3143C76.2911 11.3143 75.3467 11.5276 74.6884 11.9569C74.0276 12.3862 73.6972 12.9872 73.6972 13.7599V18.1334H71.5195L71.5221 18.136Z" fill="white"/>
<path fill-rule="evenodd" clip-rule="evenodd" d="M44.0015 15.888V16.835C41.6704 18.3909 35.9128 18.9607 34.2295 16.1924C32.5592 13.4372 34.1904 11.2361 36.7479 10.5805C36.8546 10.5467 36.8208 10.5805 36.8286 10.4608C36.7219 10.44 36.6621 10.401 36.558 10.3672C35.1999 9.89624 34.193 8.90238 34.193 7.36476C34.193 5.56177 35.8946 4.52368 37.492 4.20367C39.6385 3.77438 41.5325 3.97732 43.6009 4.49506L43.5749 7.30493H42.8594L42.4093 6.37871C42.2428 6.04829 42.1907 5.73609 41.8525 5.59039C40.9575 5.18712 40.2551 5.12728 39.3028 5.12728C38.7122 5.12728 37.9577 5.35363 37.4868 5.69706C36.4071 6.49839 36.467 8.1687 37.0237 9.00905C37.2683 9.3811 37.9577 10.0549 38.4156 10.0367L42.0867 10.0575V11.1243H38.2101C38.0644 11.0904 37.8849 11.1971 37.721 11.2621C35.9466 11.9776 35.5537 14.5872 37.0185 15.8204C38.9256 17.4308 41.9072 16.3771 44.0093 15.8854L44.0015 15.888Z" fill="white"/>
</svg>
